<svg version="1.1" id="Layer_1" xmlns="http://www.w3.org/2000/svg" xmlns:xlink="http://www.w3.org/1999/xlink" x="0px" y="0px"
	 width="100%" viewBox="0 0 500 500" enable-background="new 0 0 500 500" xml:space="preserve">
<path fill="#4C6971" opacity="1.000000" stroke="none" 
	d="
M1.000000,177.000000 
	C1.000000,118.014610 1.000000,59.529213 1.000000,1.021910 
	C167.610443,1.021910 334.220886,1.021910 500.915649,1.021910 
	C500.915649,167.568787 500.915649,334.137634 500.915649,500.853241 
	C334.333435,500.853241 167.666733,500.853241 1.000000,500.853241 
	C1.000000,393.112305 1.000000,285.306152 1.000000,177.000000 
M24.994791,202.500000 
	C24.994791,293.920837 24.994791,385.341675 24.994791,476.618561 
	C176.069916,476.618561 326.460052,476.618561 476.751099,476.618561 
	C476.751099,325.959686 476.751099,175.687515 476.751099,25.293125 
	C326.106903,25.293125 175.716949,25.293125 24.994789,25.293125 
	C24.994789,84.227219 24.994789,142.863617 24.994791,202.500000 
z"/>
<path fill="#F6F5F5" opacity="1.000000" stroke="none" 
	d="
M24.994789,202.000000 
	C24.994789,142.863617 24.994789,84.227219 24.994789,25.293125 
	C175.716949,25.293125 326.106903,25.293125 476.751099,25.293125 
	C476.751099,175.687515 476.751099,325.959686 476.751099,476.618561 
	C326.460052,476.618561 176.069916,476.618561 24.994791,476.618561 
	C24.994791,385.341675 24.994791,293.920837 24.994789,202.000000 
M204.878769,382.092865 
	C205.651871,381.503662 206.979279,381.016418 207.109421,380.308960 
	C208.059555,375.143890 204.146317,369.314514 199.096664,368.047760 
	C192.794769,366.466858 187.051407,369.444519 185.065079,375.322479 
	C182.595306,382.631042 185.385635,390.535370 191.270157,392.900116 
	C197.528900,395.415222 203.812271,392.891571 206.969040,386.538147 
	C205.974792,385.733582 204.966904,384.917969 203.980347,383.479797 
	C203.991745,383.064728 204.003143,382.649628 204.878769,382.092865 
M226.598038,317.762451 
	C225.281998,329.138000 225.263321,329.067505 214.284607,331.975189 
	C213.151108,332.275391 212.407394,334.047363 211.482803,335.136414 
	C212.932831,336.003143 214.370789,337.598022 215.834778,337.622284 
	C228.310272,337.829132 240.791214,337.669708 253.269104,337.780151 
	C265.944458,337.892334 278.597168,337.879822 290.783661,333.703461 
	C305.031555,328.820679 313.741394,316.747772 313.793732,301.997314 
	C313.847321,286.890869 305.594513,275.723145 290.652283,270.714874 
	C288.070831,269.849640 285.464355,269.059143 281.765350,267.883087 
	C284.141266,266.807251 285.428070,266.222137 286.716827,265.641449 
	C293.553986,262.560669 299.606323,258.529205 302.638763,251.307129 
	C309.247681,235.567398 299.880432,218.239685 281.993317,214.332245 
	C259.751526,209.473541 237.241486,211.898895 214.828003,213.324280 
	C213.845688,213.386734 212.969391,215.116089 212.043686,216.068954 
	C213.115540,217.034027 214.067719,218.636581 215.278107,218.863831 
	C225.411026,220.766129 225.422867,220.690247 226.610916,231.035721 
	C226.686234,231.691696 226.844589,232.338150 226.790421,233.781250 
	C226.861206,234.855087 226.932007,235.928925 226.807220,237.659103 
	C226.875412,238.105377 226.943588,238.551666 226.837524,239.921814 
	C226.859909,265.626587 226.882294,291.331329 226.598038,317.762451 
M440.714264,338.341827 
	C441.874603,338.228027 443.115753,338.330444 444.171112,337.935822 
	C445.113342,337.583557 445.850311,336.682343 446.677856,336.023376 
	C445.895874,335.135590 445.238586,333.647217 444.312225,333.454865 
	C436.786377,331.892395 431.180969,327.280273 427.224152,321.273407 
	C417.901733,307.120789 409.200623,292.558594 400.289429,278.136536 
	C399.990784,277.653229 400.137421,276.894745 400.062378,276.118774 
	C401.809235,275.199951 403.427887,274.381592 405.015839,273.507446 
	C411.118195,270.148102 416.232025,265.750244 419.460266,259.450287 
	C429.275635,240.295334 417.809448,218.527267 395.371857,214.063812 
	C374.043671,209.821045 352.575165,211.874725 331.153595,213.268158 
	C330.026367,213.341476 329.007385,215.079102 327.938019,216.041931 
	C328.976074,217.021362 329.890320,218.654068 331.071533,218.877930 
	C341.453766,220.845718 342.163239,221.450027 342.189667,232.169632 
	C342.259094,260.320343 342.270599,288.471558 342.185486,316.622192 
	C342.149719,328.454071 341.366241,329.175537 330.073273,331.949799 
	C328.869141,332.245605 327.997284,333.893982 326.971252,334.914886 
	C328.237000,335.863007 329.492218,337.619202 330.770142,337.635925 
	C345.747864,337.831879 360.729706,337.823395 375.708008,337.653809 
	C376.811615,337.641296 377.896454,335.970306 378.990021,335.070312 
	C378.041626,333.999146 377.201141,332.793091 376.100281,331.912476 
	C375.532532,331.458313 374.502014,331.581512 373.680206,331.446442 
	C366.498993,330.265900 364.529083,328.656128 364.296204,321.612732 
	C363.894592,309.464630 363.950165,297.296448 364.134613,285.141571 
	C364.153229,283.915344 366.247894,281.854706 367.589752,281.664062 
	C373.472687,280.828125 378.086731,282.587799 381.246429,288.330750 
	C387.091248,298.954132 393.213654,309.449219 399.730865,319.672394 
	C409.043976,334.281403 422.664276,340.324432 440.714264,338.341827 
M236.440475,148.758682 
	C247.515274,145.208145 258.218079,146.162933 268.188080,152.105377 
	C281.205231,159.864014 287.396515,171.882446 288.401093,186.871246 
	C298.878021,186.871246 309.054840,186.871246 319.675690,186.871246 
	C318.431274,158.875809 306.873535,137.134537 282.712341,123.628662 
	C257.886688,109.751343 232.649017,110.935753 209.083176,126.961769 
	C188.296585,141.097733 178.309052,161.499207 177.648941,186.871872 
	C188.462173,186.871872 198.644089,186.871872 208.771606,186.871872 
	C211.226730,166.820450 219.778030,154.907669 236.440475,148.758682 
M156.411789,340.174835 
	C161.007523,339.484833 165.712280,339.209290 170.180359,338.033966 
	C190.933533,332.574951 201.874100,312.679260 195.574936,292.190765 
	C191.860916,280.110626 183.193573,272.391205 172.667465,266.308105 
	C166.194214,262.567169 159.530609,259.087433 153.395233,254.849426 
	C147.461975,250.750977 143.446106,244.962921 142.988342,237.435959 
	C142.497147,229.359161 146.671646,221.814957 153.402908,219.029129 
	C162.558792,215.239838 171.732330,215.485046 178.942734,222.718719 
	C182.883209,226.671890 184.923599,232.480515 188.071472,237.288315 
	C188.896225,238.547928 190.588043,239.724091 192.014908,239.908707 
	C192.771912,240.006668 194.687576,237.809616 194.587921,236.795181 
	C193.905624,229.849640 192.994385,222.912323 191.732391,216.050430 
	C191.488846,214.726257 189.494797,212.950546 188.101105,212.737289 
	C179.255081,211.383820 170.330597,209.375137 161.470459,209.548553 
	C147.264465,209.826614 135.013885,215.172348 128.225204,228.735580 
	C120.990067,243.190842 124.870529,260.162659 138.460968,271.440979 
	C144.936646,276.814972 152.823837,280.458496 159.532318,285.590820 
	C164.981079,289.759399 170.926926,294.191223 174.375870,299.885193 
	C183.764877,315.385834 174.140457,332.116180 156.334320,332.486359 
	C148.931244,332.640259 142.224686,330.054016 137.715805,324.361450 
	C132.924210,318.311890 129.385269,311.280975 125.095345,304.813934 
	C124.260788,303.555847 122.489403,302.919220 121.150154,301.995941 
	C120.300171,303.326782 118.627220,304.730255 118.737213,305.976379 
	C119.335091,312.749756 120.188087,319.515778 121.329155,326.220337 
	C122.001625,330.171600 124.426918,332.883118 128.307236,334.637543 
	C136.976685,338.557251 145.978577,340.405060 156.411789,340.174835 
M68.315361,293.499817 
	C68.271225,301.659271 68.353447,309.821808 68.151863,317.977386 
	C67.883095,328.850769 67.107513,329.530548 56.719707,331.872620 
	C55.345074,332.182556 54.357265,334.208130 53.190300,335.439148 
	C54.587162,336.204376 55.976929,337.619232 57.381985,337.634583 
	C71.857216,337.792664 86.335609,337.785980 100.810791,337.620300 
	C102.200462,337.604401 103.574310,336.206238 104.955505,335.449768 
	C103.812386,334.215424 102.848877,332.176910 101.497467,331.875061 
	C91.481514,329.637909 90.064117,328.344177 90.022781,318.028809 
	C89.907333,289.219452 89.902832,260.408966 90.028214,231.599686 
	C90.074600,220.941116 91.190620,219.975998 101.258423,217.575592 
	C102.684753,217.235504 103.730400,215.298721 104.952240,214.100952 
	C103.591026,213.344818 102.236885,211.946579 100.867508,211.931488 
	C86.549065,211.773743 72.227371,211.769150 57.909115,211.937439 
	C56.329323,211.955994 54.765282,213.315018 53.193928,214.052338 
	C54.583321,215.295319 55.803188,217.304108 57.389980,217.655365 
	C66.763924,219.730423 67.996269,220.733856 68.101433,230.552094 
	C68.322594,251.199722 68.260956,271.850372 68.315361,293.499817 
M224.078110,174.775467 
	C222.954163,178.656586 221.830215,182.537689 220.558319,186.929703 
	C239.643845,186.929703 257.628754,186.929703 276.005066,186.929703 
	C275.759399,184.906845 275.689423,183.266586 275.347565,181.685089 
	C272.774628,169.781616 264.139191,161.396805 252.586075,159.507843 
	C241.454330,157.687775 231.166367,163.015518 224.078110,174.775467 
M149.499908,412.202637 
	C198.152084,412.202637 246.804245,412.202606 295.456421,412.202606 
	C343.905457,412.202606 392.354492,412.202606 440.803497,412.202606 
	C440.801117,411.748871 440.798706,411.295105 440.796295,410.841370 
	C311.472687,410.841370 182.149078,410.841370 52.825470,410.841370 
	C52.824135,411.295135 52.822800,411.748871 52.821461,412.202637 
	C84.714272,412.202637 116.607086,412.202637 149.499908,412.202637 
M53.433620,367.514923 
	C53.433620,375.932922 53.433620,384.350922 53.433620,392.948456 
	C58.084953,392.948456 62.090321,393.268127 66.026138,392.880920 
	C73.877281,392.108521 78.561119,383.846802 75.038116,377.040955 
	C73.942566,374.924591 71.979950,373.257050 70.346962,371.303467 
	C73.905487,366.900726 73.543808,362.169617 70.335365,358.022980 
	C65.997818,352.417084 59.670616,354.303131 53.433701,354.081696 
	C53.433701,358.596588 53.433701,362.559387 53.433620,367.514923 
M298.196777,354.024384 
	C291.474213,352.162384 284.983185,354.796448 283.189026,360.114563 
	C281.236603,365.901733 283.962524,370.694153 290.850098,373.785248 
	C293.108246,374.798706 295.851715,375.551483 297.299988,377.308258 
	C298.635284,378.928009 299.379059,381.983490 298.803680,383.942657 
	C298.306824,385.634460 295.616638,387.684052 293.845276,387.732849 
	C291.863312,387.787476 289.658264,385.975952 287.881378,384.560791 
	C287.020172,383.874908 286.915009,382.239746 286.386993,380.817352 
	C284.463470,381.353607 282.750977,381.831024 281.066925,382.300537 
	C282.552155,389.997498 286.415955,393.639771 292.919189,393.753204 
	C298.501221,393.850616 303.652771,390.097931 304.878113,385.041626 
	C306.558167,378.109009 304.225220,373.473206 297.303741,370.125977 
	C295.361938,369.186890 293.067810,368.732819 291.464600,367.413269 
	C290.153595,366.334198 288.583435,363.900696 289.008514,362.782135 
	C289.610809,361.196960 291.944183,359.286316 293.532562,359.290955 
	C295.876923,359.297852 298.216705,360.867218 301.016541,361.947998 
	C301.765961,361.426575 302.967773,360.590393 304.711029,359.377502 
	C302.577789,357.503052 300.749542,355.896576 298.196777,354.024384 
M346.948090,383.582184 
	C346.971771,382.085846 346.968872,380.588501 347.024628,379.093353 
	C347.146210,375.831757 347.917053,372.971649 351.972137,373.022461 
	C355.989105,373.072754 356.175049,376.063782 356.192902,379.021851 
	C356.220581,383.612305 356.200195,388.203033 356.200195,393.131287 
	C358.490845,392.970856 360.057892,392.861084 361.852325,392.735413 
	C361.852325,386.876831 362.126038,381.394073 361.780609,375.950623 
	C361.380737,369.648987 356.695953,366.534821 350.622406,368.090881 
	C349.526428,368.371643 348.478760,368.840973 346.755768,369.456512 
	C346.755768,362.818542 346.755768,356.604034 346.755768,350.137939 
	C344.569916,350.280914 342.980835,350.384888 341.250854,350.498047 
	C341.250854,364.755554 341.250854,378.658783 341.250854,392.740814 
	C343.178162,392.740814 344.880341,392.740814 346.948029,392.740814 
	C346.948029,389.802399 346.948029,387.168732 346.948090,383.582184 
M266.499725,454.402527 
	C295.654755,454.402496 324.809753,454.402435 353.964783,454.402435 
	C382.858429,454.402405 411.752075,454.402466 440.645721,454.402466 
	C440.641632,454.049164 440.637573,453.695892 440.633484,453.342590 
	C311.514862,453.342590 182.396255,453.342590 53.277645,453.342590 
	C53.277504,453.695923 53.277359,454.049286 53.277218,454.402618 
	C124.018044,454.402618 194.758865,454.402618 266.499725,454.402527 
M386.861359,368.058258 
	C385.537933,367.964783 384.210297,367.751526 382.891754,367.797577 
	C375.163727,368.067413 370.299927,374.045166 370.956635,382.393372 
	C371.506744,389.386414 377.618195,394.405762 384.720947,393.697998 
	C390.336823,393.138397 394.932434,389.144257 395.938782,383.948273 
	C397.341217,376.707214 394.691437,371.697266 386.861359,368.058258 
M424.532227,391.150665 
	C429.542938,387.308746 430.628357,382.169098 428.922424,376.444641 
	C427.471954,371.577271 423.964172,368.637939 418.879974,367.895294 
	C413.021973,367.039642 407.537537,369.905518 405.165375,374.891479 
	C402.866516,379.723358 404.047668,386.409851 407.864899,390.173889 
	C412.087708,394.337799 417.609741,394.840240 424.532227,391.150665 
M243.732498,70.900047 
	C237.332443,82.445747 237.022736,93.613785 246.023972,104.673286 
	C247.435318,103.575485 248.765305,102.540970 250.028412,101.558464 
	C243.837341,90.771545 243.240799,86.148216 246.727859,78.055092 
	C247.649277,75.916557 248.613266,73.787888 249.379669,71.592545 
	C252.473419,62.730751 249.620575,52.234573 242.393326,46.179180 
	C241.261932,47.251724 240.114334,48.339638 238.904800,49.486252 
	C243.517441,55.921188 247.181259,62.233814 243.732498,70.900047 
M208.079468,53.458416 
	C208.089920,54.965446 207.465134,57.255299 208.208817,57.858765 
	C215.886047,64.088600 217.354568,71.708710 215.212128,81.101120 
	C212.678467,92.208580 217.118805,101.900826 226.482727,107.900208 
	C227.402176,106.669479 228.336441,105.418938 229.457718,103.918060 
	C221.989746,97.485199 218.166946,90.039764 220.945099,80.307053 
	C221.442459,78.564651 221.590164,76.705833 221.754227,74.887680 
	C222.647263,64.991203 217.445099,58.197506 210.187592,52.515427 
	C209.908768,52.297131 209.073685,52.789352 208.079468,53.458416 
M155.946533,188.816681 
	C159.775253,187.437897 163.603973,186.059113 167.883636,184.517929 
	C166.721237,182.318802 165.994858,180.944550 165.019150,179.098602 
	C155.017899,185.930038 145.835083,184.065063 137.036514,177.457596 
	C136.510849,177.062805 135.876846,176.802368 135.273117,176.522919 
	C127.489861,172.919968 116.996033,174.831268 110.665329,181.209702 
	C111.481529,182.469147 112.339203,183.792587 113.419060,185.458878 
	C122.315125,178.417038 130.796341,179.082367 139.415817,185.303085 
	C144.003128,188.613785 149.357529,189.884003 155.946533,188.816681 
M160.524002,120.022919 
	C164.669495,131.235672 173.275299,135.983063 185.141357,136.873169 
	C185.294250,135.022934 185.434662,133.323746 185.612991,131.165787 
	C173.937729,130.988297 167.854263,124.467812 164.020218,114.570587 
	C159.907013,103.952812 150.904770,100.932167 140.109497,100.621208 
	C140.109497,102.506805 140.109497,104.083229 140.109497,106.103600 
	C149.635513,106.267128 157.062943,109.678978 160.524002,120.022919 
M348.631683,149.880783 
	C339.432220,150.104340 333.424927,155.438843 327.922516,162.403152 
	C329.573181,163.672394 330.843018,164.648819 332.078613,165.598877 
	C342.105743,155.335114 343.581085,154.827942 357.441010,156.709793 
	C368.169128,158.166412 376.853149,153.578720 382.212677,143.404251 
	C380.956299,142.532867 379.667542,141.639038 378.223541,140.637543 
	C377.158478,141.921310 376.294922,142.906494 375.492126,143.938919 
	C370.593170,150.239456 364.242981,152.423767 356.463104,150.816971 
	C354.189941,150.347458 351.854889,150.177444 348.631683,149.880783 
M304.256470,92.729416 
	C316.239258,84.572037 320.503845,74.861198 316.793640,63.563786 
	C315.315399,63.812714 313.783142,64.070740 312.223907,64.333305 
	C312.223907,66.235306 312.143677,67.727386 312.237427,69.208443 
	C312.710052,76.674675 310.047852,82.493240 303.497284,86.412598 
	C301.650055,87.517838 299.907776,88.831108 298.240540,90.199059 
	C290.351654,96.671700 288.870575,105.268135 289.867126,115.177673 
	C291.815948,114.949615 293.363495,114.768509 295.146271,114.559883 
	C294.457916,105.696152 296.060608,98.142433 304.256470,92.729416 
M338.800232,178.171402 
	C336.615997,179.576843 334.431793,180.982269 331.915466,182.601395 
	C333.210114,184.326721 334.162415,185.595840 335.390045,187.231857 
	C344.140564,179.335098 353.009338,180.052811 362.846802,184.771591 
	C372.001343,189.162796 381.786072,186.091385 388.962250,178.058578 
	C388.563354,177.425293 388.192749,176.686508 387.679840,176.065216 
	C387.172821,175.451126 386.521973,174.955750 385.577332,174.075882 
	C377.423218,182.663147 368.473328,182.126312 358.708954,177.153778 
	C352.445160,173.963898 345.791504,174.582977 338.800232,178.171402 
M319.760834,111.109360 
	C322.638336,109.815216 325.475922,108.422012 328.400482,107.244766 
	C338.852386,103.037468 343.992004,95.310608 343.979675,83.241524 
	C342.452209,83.137024 340.895844,83.030548 339.426819,82.930038 
	C335.146790,98.002518 335.171234,98.060013 320.962524,104.104340 
	C311.278870,108.223724 307.207825,116.095352 305.909760,125.928200 
	C305.873596,126.202202 306.156891,126.518394 306.379852,127.010506 
	C307.695892,127.238106 309.116821,127.483841 310.537781,127.729576 
	C310.208160,127.385010 309.878571,127.040436 309.548981,126.695869 
	C312.748016,121.636574 315.947083,116.577278 319.760834,111.109360 
M160.863327,154.365387 
	C154.390625,153.809891 150.721924,149.201004 146.854065,144.793320 
	C139.537430,136.455475 129.368271,134.237381 119.202766,138.738922 
	C119.616211,140.110825 120.035339,141.501572 120.542343,143.183914 
	C122.393829,142.947556 124.026611,142.820511 125.627037,142.520782 
	C132.649506,141.205582 138.397491,143.184128 142.955444,148.796509 
	C144.836273,151.112442 146.933105,153.308273 149.199341,155.245636 
	C156.250961,161.273926 164.330933,160.840668 173.148300,158.978561 
	C172.524567,157.029221 172.052322,155.553329 171.710068,154.483688 
	C168.059082,154.483688 164.911942,154.483688 160.863327,154.365387 
M286.925995,59.902206 
	C286.092377,56.625874 285.258759,53.349541 284.346222,49.763016 
	C282.102478,50.844624 280.785858,51.479298 279.293427,52.198734 
	C279.644867,53.483059 279.887329,54.599651 280.254456,55.673615 
	C282.905487,63.428364 281.860992,70.348946 275.916901,76.342049 
	C274.175720,78.097595 272.638824,80.116272 271.303741,82.203339 
	C266.181427,90.210732 267.279938,98.490318 270.075378,107.318115 
	C272.059296,106.550079 273.514923,105.986565 274.902283,105.449486 
	C271.883148,91.210365 272.201935,89.536781 281.256744,78.706749 
	C285.653259,73.448311 287.851013,67.649902 286.925995,59.902206 
M191.407608,101.662819 
	C190.934326,98.709206 190.354340,95.768082 190.006729,92.799751 
	C188.692184,81.574219 181.741425,73.763161 170.557480,71.356964 
	C170.072067,72.820854 169.575668,74.317886 168.885773,76.398453 
	C181.034592,79.486061 184.464615,88.213715 185.286072,99.348923 
	C185.983002,108.796318 194.403763,117.125023 203.713791,118.845901 
	C204.168396,117.388474 204.635132,115.892212 205.101852,114.395943 
	C204.597321,114.670334 204.092789,114.944725 203.588257,115.219116 
	C199.653564,110.934708 195.718857,106.650291 191.407608,101.662819 
M365.228455,111.628654 
	C364.348145,112.080124 362.938568,112.323792 362.667450,113.014404 
	C358.978119,122.411980 352.068024,125.944344 342.122040,126.542931 
	C330.658722,127.232826 322.793640,134.490768 320.250610,144.587219 
	C321.539520,145.188721 322.863586,145.806625 324.779449,146.700684 
	C328.823425,134.960007 338.024109,131.940903 349.118561,131.249832 
	C358.760651,130.649231 363.888428,123.742767 367.359650,115.555275 
	C367.728363,114.685585 366.442383,113.114388 365.228455,111.628654 
M105.550201,385.638489 
	C105.550201,380.040802 105.550201,374.443115 105.550201,368.682068 
	C103.724304,368.682068 102.019798,368.682068 100.010635,368.682068 
	C100.010635,373.525116 100.034554,378.002106 100.002327,382.478668 
	C99.980377,385.527832 99.433189,388.335480 95.535408,388.352966 
	C91.723068,388.370087 90.928223,385.697876 90.899643,382.593811 
	C90.857224,377.987000 90.888657,373.379517 90.888657,368.652435 
	C88.684906,368.652435 87.122948,368.652435 85.132988,368.652435 
	C85.132988,373.767395 85.041077,378.562256 85.156685,383.352081 
	C85.295433,389.100586 88.266563,392.681274 93.406174,393.592346 
	C99.261749,394.630341 103.156654,392.289734 105.550201,385.638489 
M175.490646,387.290283 
	C175.428909,383.301727 175.581070,379.295166 175.247543,375.329498 
	C174.886917,371.041809 172.544235,367.959503 168.006760,367.931000 
	C163.687347,367.903839 159.363068,368.652222 155.103134,369.053741 
	C155.103134,376.970428 155.103134,384.872131 155.103134,393.076691 
	C157.013657,392.955017 158.554428,392.856873 160.536728,392.730621 
	C160.536728,387.583649 160.389191,382.929077 160.588776,378.289429 
	C160.721100,375.213654 161.927994,372.727417 165.726395,372.964630 
	C169.447906,373.197083 169.717194,376.042542 169.811295,378.708282 
	C169.974350,383.328003 169.856552,387.957611 169.856552,392.803223 
	C171.888855,392.803223 173.464523,392.803223 175.490463,392.803223 
	C175.490463,391.163208 175.490463,389.692719 175.490646,387.290283 
M332.983002,374.105652 
	C332.976624,371.670837 333.611206,368.977051 330.077698,368.216583 
	C325.042236,367.132751 320.422058,367.688110 316.737946,371.612427 
	C312.998322,375.595886 311.952972,380.249329 313.881836,385.438751 
	C315.752045,390.470276 319.486847,393.509308 324.745544,393.614807 
	C333.289490,393.786194 334.184998,392.114136 332.493195,385.411591 
	C332.048889,385.662201 331.578949,385.833588 331.227020,386.140350 
	C327.878448,389.058624 324.367767,389.468384 320.987610,386.409576 
	C318.328766,384.003418 318.156250,378.681580 320.337921,375.821381 
	C322.914062,372.444031 326.322937,372.209045 330.900421,374.959869 
	C331.398041,375.258911 332.263672,374.945587 332.983002,374.105652 
M130.628586,382.400482 
	C127.961479,380.530487 125.235123,378.736938 122.663322,376.743927 
	C121.888824,376.143799 121.543976,374.989258 121.002327,374.088623 
	C121.957726,373.944702 122.909843,373.711395 123.869232,373.676178 
	C125.681992,373.609589 127.498940,373.656891 129.888123,373.656891 
	C127.071793,368.442108 125.279747,367.324188 121.630104,367.839142 
	C118.046333,368.344788 115.962135,370.504761 115.426987,374.002716 
	C114.875587,377.606812 116.563499,380.034943 119.840424,381.488861 
	C121.050446,382.025696 122.502983,382.459076 123.283745,383.403534 
	C124.176208,384.483063 124.443604,386.079346 124.982605,387.451050 
	C123.464821,387.485413 121.933861,387.659973 120.432541,387.519012 
	C118.503769,387.337891 116.598778,386.903442 113.628639,386.398956 
	C117.147514,393.054993 120.594810,394.807983 125.265106,393.320190 
	C130.274048,391.724518 131.725357,388.040619 130.628586,382.400482 
M227.231201,368.838562 
	C222.004745,366.999023 218.384842,368.010132 216.602951,371.807220 
	C214.723557,375.812073 216.234024,379.187775 221.066330,381.791870 
	C222.087479,382.342163 223.373184,382.684052 224.050507,383.517426 
	C224.872910,384.529205 225.179565,385.960236 225.709351,387.209869 
	C224.229401,387.374054 221.960342,388.225037 221.403793,387.585571 
	C218.754257,384.541351 216.980453,386.344574 214.685867,388.004669 
	C215.407257,389.107849 215.863068,389.988403 216.486847,390.727142 
	C219.195221,393.934692 222.973557,394.877502 226.321503,392.983124 
	C228.704330,391.634888 230.892975,388.678619 231.640228,386.011841 
	C232.667313,382.346344 229.795059,379.982941 226.575516,378.441559 
	C225.233139,377.798920 223.806656,377.243073 222.641754,376.354828 
	C222.029404,375.887909 221.898651,374.789307 221.550415,373.975922 
	C222.395996,373.787628 223.242935,373.436768 224.086899,373.443787 
	C226.020599,373.459930 227.952820,373.650726 231.280640,373.857117 
	C229.398392,371.313995 228.640381,370.289856 227.231201,368.838562 
M248.115677,393.641327 
	C252.063263,392.772125 254.642456,390.671997 255.111038,386.368408 
	C255.601532,381.863556 252.941162,379.728119 249.368011,378.115540 
	C248.163513,377.571930 246.866592,377.057739 245.915924,376.195068 
	C245.374619,375.703857 245.447479,374.535858 245.243790,373.672607 
	C245.985901,373.556396 246.726013,373.357788 247.470490,373.339874 
	C249.435638,373.292664 251.402664,373.323914 254.148575,373.323914 
	C250.613770,368.141357 248.039551,366.545288 244.776581,368.166718 
	C242.566620,369.264954 240.341934,371.726624 239.592407,374.051849 
	C238.398849,377.754639 240.946259,380.224579 244.328064,381.701965 
	C245.389038,382.165466 246.704849,382.540039 247.331818,383.381622 
	C248.181351,384.521912 248.479935,386.072723 249.014847,387.447449 
	C247.503937,387.482330 245.979568,387.658905 244.485489,387.516785 
	C242.537628,387.331543 240.613800,386.893585 237.576279,386.376556 
	C240.072220,392.094116 243.080780,393.889038 248.115677,393.641327 
M443.899689,351.083282 
	C442.274963,350.743469 440.650269,350.403625 438.759094,350.008057 
	C438.759094,364.742584 438.759094,378.764404 438.759094,393.124420 
	C440.719421,392.997192 442.273041,392.896332 444.042755,392.781464 
	C444.042755,378.910828 444.042755,365.446228 443.899689,351.083282 
M135.166534,438.702454 
	C136.165863,436.101196 137.165207,433.499969 138.430801,430.205658 
	C140.196152,434.831116 141.678619,438.715363 143.441711,443.334930 
	C146.433411,435.949005 149.068954,429.442322 151.704498,422.935638 
	C151.166168,422.635101 150.627853,422.334534 150.089523,422.033966 
	C146.032196,424.971405 146.338165,430.752686 143.342041,434.584259 
	C141.796310,430.493164 140.270554,426.454956 138.467148,421.681885 
	C136.653885,426.372986 135.167984,430.217194 133.616608,434.230804 
	C130.224716,430.747559 131.192719,424.708008 126.863419,422.178009 
	C126.362083,422.449310 125.860748,422.720612 125.359421,422.991943 
	C127.897552,429.443481 130.435684,435.895020 133.271622,443.103546 
	C134.119843,441.244049 134.531372,440.341827 135.166534,438.702454 
M205.767807,106.710785 
	C208.383575,108.851181 210.999344,110.991577 213.954559,113.409737 
	C215.105530,111.225609 215.841461,109.829102 216.782669,108.043015 
	C206.154205,102.521591 203.123154,93.449524 204.955215,82.406975 
	C200.183914,82.737129 199.064682,84.762428 199.017136,88.379822 
	C198.927917,95.168976 200.566498,101.180450 205.767807,106.710785 
M233.225739,103.509209 
	C236.196136,107.517563 237.270142,103.930756 238.485550,102.832985 
	C236.166748,97.746269 233.024002,93.307449 232.265961,88.493141 
	C231.519791,83.753998 233.191422,78.634163 233.795303,73.737274 
	C229.836548,73.089203 228.484451,74.910271 227.423660,78.312752 
	C224.508942,87.661858 227.070175,95.567711 233.225739,103.509209 
M261.458618,99.559319 
	C256.815338,90.318832 259.478394,82.017342 265.021240,73.495750 
	C262.335175,73.535011 259.665527,73.739616 258.520660,75.167099 
	C251.906143,83.414246 251.992264,95.991333 259.291229,106.005531 
	C260.331146,103.570335 261.050354,101.886200 261.458618,99.559319 
M185.134979,441.557556 
	C186.212616,441.734436 187.290253,441.911316 189.175247,442.220734 
	C187.085327,439.128174 185.457932,436.720062 183.830521,434.311920 
	C184.389786,434.309723 184.949036,434.307526 185.508286,434.305328 
	C185.954163,431.349365 187.579712,427.886810 186.577316,425.552826 
	C184.958649,421.783844 180.785919,421.957001 176.697144,422.733368 
	C176.697144,427.379150 176.569000,431.856812 176.756927,436.321167 
	C176.838028,438.247864 177.572754,440.147003 178.010544,442.058685 
	C178.651398,440.148315 179.283508,438.234955 179.943527,436.331207 
	C180.031662,436.076996 180.260971,435.871704 180.665833,435.308746 
	C182.071136,437.277863 183.386978,439.121613 185.134979,441.557556 
M286.506348,82.072243 
	C277.800507,89.666069 276.771729,99.197678 279.215271,110.090057 
	C281.003082,109.731033 282.404541,109.449585 284.363251,109.056229 
	C281.990936,98.361427 284.570404,89.428871 294.147614,82.987000 
	C293.795685,82.530334 293.443726,82.073662 293.091766,81.616989 
	C291.072266,81.616989 289.052795,81.616989 286.506348,82.072243 
M167.594604,147.060043 
	C170.960526,147.294876 174.326431,147.529724 178.097931,147.792862 
	C177.952377,145.431183 177.864899,144.011902 177.739838,141.983078 
	C166.621490,143.188995 158.713547,138.500687 154.090729,128.599442 
	C150.364563,132.221024 150.959869,134.869095 153.394180,137.989838 
	C156.928635,142.520905 161.263245,145.534546 167.594604,147.060043 
M177.920944,119.564476 
	C182.259109,123.623047 187.244354,126.329620 193.437485,127.212265 
	C193.760147,126.229080 194.061951,125.482971 194.242981,124.708618 
	C194.421051,123.947105 194.476547,123.156937 194.652344,121.906151 
	C183.246475,119.875229 177.531464,112.413414 175.872345,101.480354 
	C171.366501,103.425415 170.512665,105.992828 172.289413,109.438919 
	C173.951431,112.662514 175.714432,115.834045 177.920944,119.564476 
M438.780884,434.337646 
	C437.418732,428.933899 433.726440,432.975739 431.280426,431.965515 
	C431.084229,432.400116 430.888031,432.834717 430.691833,433.269348 
	C432.167725,434.106384 433.643616,434.943451 435.112152,435.776306 
	C432.233002,439.854462 429.425964,440.545776 426.053375,438.063629 
	C423.085724,435.879547 422.186981,431.311707 424.448029,428.227051 
	C426.773071,425.055115 429.804199,423.910034 433.578430,426.071411 
	C434.651550,426.685974 435.960754,426.888245 437.161682,427.279602 
	C433.466034,421.723602 429.889374,420.816772 425.699097,423.161926 
	C421.489471,425.517975 419.535400,429.230377 420.233582,433.990173 
	C420.931946,438.750824 424.918762,442.327850 429.406647,442.420258 
	C434.416199,442.523438 437.522736,440.001221 438.780884,434.337646 
M160.161011,173.958176 
	C163.109802,173.194717 166.058578,172.431274 169.442795,171.555084 
	C168.563614,169.345810 167.995987,167.919418 167.250046,166.044983 
	C157.454712,170.591995 148.940109,168.882462 141.674347,161.572693 
	C139.139542,165.792892 140.350693,168.196228 143.656937,170.403915 
	C148.468765,173.616974 153.646774,174.600586 160.161011,173.958176 
M313.118011,100.505188 
	C314.507080,99.711220 315.896179,98.917259 317.353973,98.084038 
	C314.910034,93.983795 312.450989,94.118530 309.004730,96.378731 
	C300.403351,102.019875 298.016388,110.343590 297.494873,120.244820 
	C299.528870,120.244820 301.072479,120.244820 302.699188,120.244820 
	C303.891296,112.589096 304.925598,105.055473 313.118011,100.505188 
M319.655975,133.214844 
	C322.406464,124.898438 328.694305,120.662682 337.227417,118.250328 
	C335.421631,116.532440 333.509644,114.724106 331.817413,114.910530 
	C323.212738,115.858459 315.964691,124.067863 313.581879,135.106995 
	C315.744293,135.666458 318.216583,138.832748 319.655975,133.214844 
M169.825546,424.665405 
	C169.145279,424.191528 168.510910,423.626038 167.777359,423.258453 
	C162.670410,420.698975 156.663330,422.671936 154.217484,427.674835 
	C151.649551,432.927460 153.860092,439.210175 159.111679,441.584900 
	C164.184586,443.878845 170.099823,441.568970 172.395416,436.270691 
	C174.163773,432.189301 173.243042,428.495544 169.825546,424.665405 
M330.618866,154.948151 
	C335.245605,147.859100 341.490631,143.792374 350.292450,144.934174 
	C350.496277,139.989563 348.279938,138.618576 344.103912,139.222824 
	C335.042206,140.534058 329.396667,146.191925 324.227997,154.711502 
	C326.662537,155.034241 328.445374,155.270584 330.618866,154.948151 
M416.842316,425.075623 
	C416.285370,424.104553 415.728394,423.133453 415.171417,422.162384 
	C414.697479,422.309143 414.223572,422.455902 413.749634,422.602661 
	C413.749634,426.632141 413.749634,430.661591 413.749634,435.774445 
	C408.844666,430.629242 404.790070,426.376099 400.203796,421.565216 
	C400.203796,428.924469 400.203796,435.423248 400.203796,441.921997 
	C400.800629,442.022736 401.397430,442.123444 401.994263,442.224182 
	C402.298004,440.405334 402.743011,438.596222 402.869202,436.765137 
	C403.022095,434.546753 402.905487,432.309845 402.905487,430.080933 
	C403.350555,429.892090 403.795654,429.703217 404.240723,429.514374 
	C408.239166,433.684265 412.237610,437.854126 416.843933,442.657928 
	C416.843933,436.538361 416.843933,431.253876 416.842316,425.075623 
M374.074310,438.383545 
	C374.074310,435.516174 374.074310,432.648834 374.074310,428.649780 
	C379.061920,433.940948 383.097565,438.222229 387.430481,442.818878 
	C389.022247,431.965210 388.327362,424.011871 385.027283,422.048065 
	C385.027283,426.593140 385.027283,430.697845 385.027283,435.849030 
	C380.058014,430.603973 376.010864,426.332245 371.062927,421.109711 
	C371.062927,428.158691 370.997406,433.898651 371.137848,439.633575 
	C371.157532,440.437653 372.186523,441.217041 372.748352,442.007843 
	C373.190155,441.104431 373.631958,440.201019 374.074310,438.383545 
M332.957031,169.546417 
	C328.944824,172.646103 332.275818,173.961563 334.461212,175.942825 
	C340.598083,169.307129 347.767578,165.952499 356.624573,168.827225 
	C357.476562,163.443527 355.063232,162.131226 351.056702,162.008194 
	C344.130493,161.795532 338.588013,164.826477 332.957031,169.546417 
M349.718231,432.761444 
	C348.078522,429.174347 346.438782,425.587250 344.471497,421.283539 
	C341.223450,428.416107 338.258820,434.926361 334.766479,442.595428 
	C338.564819,440.445801 341.304321,437.675415 344.042023,437.677185 
	C346.986053,437.679108 349.928406,440.282074 353.542603,442.084900 
	C352.202972,438.842529 351.095093,436.161011 349.718231,432.761444 
M85.012634,430.453613 
	C83.365326,434.143127 81.718025,437.832672 79.654259,442.454956 
	C83.392258,440.405243 86.199493,437.648560 88.976463,437.678711 
	C91.869469,437.710114 94.733284,440.430176 98.639854,442.527679 
	C95.328461,435.014069 92.487808,428.568573 89.303253,421.342743 
	C87.671738,424.731934 86.465843,427.237000 85.012634,430.453613 
M282.172699,440.760223 
	C279.450104,434.529022 276.727539,428.297821 273.609131,421.160645 
	C270.216888,428.698822 267.334473,435.104065 263.865784,442.812164 
	C266.075378,441.795319 267.286011,441.613708 267.865143,440.911377 
	C271.962067,435.943329 275.242981,435.920166 279.045929,440.747070 
	C279.596039,441.445312 281.180542,441.328583 282.172699,440.760223 
M52.587143,438.058655 
	C52.816429,439.442261 53.045719,440.825836 53.275005,442.209442 
	C53.855991,442.199921 54.436977,442.190399 55.017963,442.180878 
	C55.296997,439.937897 55.576031,437.694946 55.881729,435.237671 
	C58.427921,437.850098 60.778633,440.261932 63.129349,442.673798 
	C63.556339,442.264862 63.983334,441.855957 64.410324,441.447021 
	C62.865231,439.121826 61.320137,436.796600 59.775043,434.471405 
	C60.180683,434.521362 60.586319,434.571289 60.991955,434.621246 
	C61.595806,431.654327 63.400734,428.260223 62.531776,425.817169 
	C61.104572,421.804626 56.820557,422.152344 52.587284,422.688660 
	C52.587284,427.586609 52.587284,432.370911 52.587143,438.058655 
M217.945908,431.667755 
	C215.992615,423.691437 211.517273,421.062012 203.252167,423.044678 
	C203.252167,429.296844 203.252167,435.549011 203.252167,441.768646 
	C213.134583,442.652100 216.331879,440.584991 217.945908,431.667755 
M144.884079,386.370239 
	C144.884079,380.473907 144.884079,374.577545 144.884079,368.303253 
	C142.620239,368.408020 141.054886,368.480469 139.340485,368.559814 
	C139.340485,376.829529 139.340485,384.701660 139.340485,392.822571 
	C141.169098,392.822571 142.742691,392.822571 144.885925,392.822571 
	C144.885925,390.892212 144.885925,389.109619 144.884079,386.370239 
M245.527313,432.895508 
	C248.018585,430.490723 248.966049,427.160919 246.462448,425.004486 
	C244.218033,423.071381 240.579788,422.756500 237.225037,421.614929 
	C237.225037,429.399414 237.225037,435.650391 237.225037,441.901367 
	C237.787506,442.036835 238.349960,442.172302 238.912430,442.307800 
	C239.486023,440.026306 240.059616,437.744843 240.620972,435.511993 
	C243.860626,436.900391 243.383789,443.042786 248.430573,441.867157 
	C247.212616,438.894287 246.058884,436.078247 245.527313,432.895508 
M363.186157,423.045837 
	C360.954437,422.766754 358.722717,422.487640 356.172882,422.168762 
	C356.172882,429.162170 356.172882,435.534607 356.172882,441.907074 
	C356.719360,442.064087 357.265839,442.221130 357.812317,442.378143 
	C358.428589,440.086243 359.044830,437.794373 359.657196,435.517029 
	C362.812592,436.879486 362.440460,442.908966 368.015503,441.697418 
	C366.209900,439.012573 364.590027,436.603912 363.015808,434.263092 
	C367.783722,429.600006 367.910400,427.408234 363.186157,423.045837 
M258.151154,425.394257 
	C259.683533,425.266022 261.215912,425.137787 262.748291,425.009552 
	C262.770782,424.304108 262.793304,423.598694 262.815796,422.893280 
	C259.319275,422.673981 255.822784,422.454712 252.314209,422.234680 
	C252.314209,429.335663 252.314209,435.574371 252.314209,441.627747 
	C255.975479,441.627747 259.307526,441.627747 262.639557,441.627747 
	C262.743408,441.074005 262.847260,440.520233 262.951141,439.966492 
	C260.420563,439.470001 257.889984,438.973541 255.366837,438.478546 
	C255.366837,436.707886 255.366837,434.974609 255.366837,434.138428 
	C258.071228,432.997070 260.223999,432.088470 262.376770,431.179932 
	C260.295288,430.714996 258.210785,430.262726 256.135742,429.770630 
	C255.844604,429.701599 255.599670,429.437622 254.353531,428.624695 
	C255.406586,427.463196 256.343079,426.430267 258.151154,425.394257 
M326.064911,428.240601 
	C326.081085,422.360321 331.945435,427.523590 333.949158,423.017273 
	C330.246155,422.710205 326.901947,422.432922 323.349670,422.138367 
	C323.349670,429.214417 323.349670,435.566559 323.349670,441.702881 
	C326.927612,441.702881 330.148743,441.702881 333.369873,441.702881 
	C333.476898,441.159454 333.583923,440.615997 333.690948,440.072571 
	C331.228912,439.526703 328.766907,438.980865 326.363525,438.448029 
	C326.363525,436.664154 326.363525,434.929047 326.363525,433.122894 
	C327.500854,433.067993 328.357819,433.164337 329.135040,432.958923 
	C330.536652,432.588470 331.890533,432.037537 333.264343,431.561920 
	C331.984100,431.005951 330.727722,430.383087 329.416016,429.915405 
	C328.381805,429.546661 327.279449,429.369019 326.064911,428.240601 
M71.569702,438.923492 
	C71.291992,437.086975 71.014275,435.250427 70.865250,434.264923 
	C73.245979,431.617828 77.272194,435.100220 78.219330,430.188263 
	C75.751320,430.008087 73.523888,429.845428 71.153725,429.672394 
	C71.153725,428.163666 71.153725,426.926086 71.153725,425.572144 
	C72.573181,425.488068 73.728836,425.445740 74.879234,425.343964 
	C75.962173,425.248138 77.039581,425.089752 78.255074,424.942474 
	C76.705544,421.975250 74.120529,421.575806 68.179199,423.038971 
	C68.179199,429.308746 68.179199,435.559692 68.179199,441.731140 
	C71.722748,441.731140 74.939560,441.731140 78.156380,441.731140 
	C78.249008,441.126923 78.341637,440.522705 78.434265,439.918488 
	C76.440956,439.619110 74.447639,439.319702 71.569702,438.923492 
M103.736099,424.337830 
	C103.163551,423.689911 102.590996,423.042023 102.018463,422.394135 
	C101.563461,422.968109 100.722664,423.535736 100.713043,424.117065 
	C100.615417,430.015686 100.653442,435.916534 100.653442,441.791748 
	C103.836349,441.791748 106.414543,441.791748 108.992729,441.791748 
	C109.140244,441.288025 109.287750,440.784332 109.435257,440.280609 
	C107.685379,439.657074 105.935501,439.033508 103.749352,438.254517 
	C103.749352,434.078033 103.749352,429.634613 103.736099,424.337830 
M395.092377,441.636078 
	C395.092377,435.202911 395.092377,428.769745 395.092377,421.444702 
	C393.517303,422.519104 392.583313,422.852448 392.575195,423.207031 
	C392.439209,429.139557 392.385223,435.075104 392.456635,441.008270 
	C392.460938,441.364532 393.671753,441.706299 395.092377,441.636078 
M312.469940,422.531342 
	C312.190460,428.897858 311.911011,435.264343 311.621429,441.860657 
	C314.869446,441.860657 317.419800,441.860657 319.970154,441.860657 
	C320.163910,441.350311 320.357666,440.839966 320.551422,440.329620 
	C318.752106,439.687439 316.952789,439.045258 314.823425,438.285309 
	C314.823425,434.674652 314.967560,430.873260 314.754730,427.091980 
	C314.665588,425.508575 313.819305,423.967773 312.469940,422.531342 
M290.186584,442.099487 
	C291.303497,441.540741 292.420380,440.981995 293.537292,440.423248 
	C291.881378,439.720001 290.225464,439.016724 287.881439,438.021210 
	C287.881439,433.221069 287.881439,427.861389 287.881439,422.209412 
	C284.758179,423.975983 284.116821,430.748535 285.533325,441.899261 
	C286.750519,441.964478 288.025940,442.032806 290.186584,442.099487 
M194.935776,427.757324 
	C194.654709,425.924469 194.373627,424.091644 194.092545,422.258789 
	C193.490692,422.357666 192.888824,422.456512 192.286957,422.555389 
	C192.286957,429.013885 192.286957,435.472351 192.286957,441.711426 
	C195.209686,441.711426 197.759430,441.711426 200.309174,441.711426 
	C200.434311,441.199982 200.559464,440.688538 200.684601,440.177124 
	C198.895889,439.614563 197.107162,439.052002 194.935593,438.369049 
	C194.935593,435.263519 194.935593,431.975037 194.935776,427.757324 
M140.872482,361.837830 
	C142.430267,360.784668 144.242371,359.941742 145.391830,358.551056 
	C145.739532,358.130432 144.498062,355.451355 143.543274,355.133942 
	C142.299683,354.720459 139.397461,355.493439 139.341690,355.993652 
	C139.142288,357.781921 139.844193,359.670715 140.872482,361.837830 
z"/>
<path fill="#922124" opacity="1.000000" stroke="none" 
	d="
M440.281860,338.374359 
	C422.664276,340.324432 409.043976,334.281403 399.730865,319.672394 
	C393.213654,309.449219 387.091248,298.954132 381.246429,288.330750 
	C378.086731,282.587799 373.472687,280.828125 367.589752,281.664062 
	C366.247894,281.854706 364.153229,283.915344 364.134613,285.141571 
	C363.950165,297.296448 363.894592,309.464630 364.296204,321.612732 
	C364.529083,328.656128 366.498993,330.265900 373.680206,331.446442 
	C374.502014,331.581512 375.532532,331.458313 376.100281,331.912476 
	C377.201141,332.793091 378.041626,333.999146 378.990021,335.070312 
	C377.896454,335.970306 376.811615,337.641296 375.708008,337.653809 
	C360.729706,337.823395 345.747864,337.831879 330.770142,337.635925 
	C329.492218,337.619202 328.237000,335.863007 326.971252,334.914886 
	C327.997284,333.893982 328.869141,332.245605 330.073273,331.949799 
	C341.366241,329.175537 342.149719,328.454071 342.185486,316.622192 
	C342.270599,288.471558 342.259094,260.320343 342.189667,232.169632 
	C342.163239,221.450027 341.453766,220.845718 331.071533,218.877930 
	C329.890320,218.654068 328.976074,217.021362 327.938019,216.041931 
	C329.007385,215.079102 330.026367,213.341476 331.153595,213.268158 
	C352.575165,211.874725 374.043671,209.821045 395.371857,214.063812 
	C417.809448,218.527267 429.275635,240.295334 419.460266,259.450287 
	C416.232025,265.750244 411.118195,270.148102 405.015839,273.507446 
	C403.427887,274.381592 401.809235,275.199951 400.062378,276.118774 
	C400.137421,276.894745 399.990784,277.653229 400.289429,278.136536 
	C409.200623,292.558594 417.901733,307.120789 427.224152,321.273407 
	C431.180969,327.280273 436.786377,331.892395 444.312225,333.454865 
	C445.238586,333.647217 445.895874,335.135590 446.677856,336.023376 
	C445.850311,336.682343 445.113342,337.583557 444.171112,337.935822 
	C443.115753,338.330444 441.874603,338.228027 440.281860,338.374359 
M398.891144,243.933182 
	C398.637329,242.625793 398.401794,241.314545 398.126862,240.011612 
	C395.180878,226.050125 383.817932,217.784500 369.621033,219.261017 
	C366.560333,219.579346 364.039368,220.418472 364.040466,224.229630 
	C364.044830,239.551910 363.940582,254.875076 364.127472,270.194855 
	C364.142914,271.460876 365.948059,273.703156 367.077179,273.807404 
	C383.255127,275.301392 397.742371,271.890503 398.980530,249.816742 
	C399.073608,248.157303 398.981415,246.487442 398.891144,243.933182 
z"/>
<path fill="#922023" opacity="1.000000" stroke="none" 
	d="
M227.011780,238.997940 
	C226.943588,238.551666 226.875412,238.105377 227.129990,237.092285 
	C227.289948,235.346664 227.127136,234.167847 226.964325,232.989029 
	C226.844589,232.338150 226.686234,231.691696 226.610916,231.035721 
	C225.422867,220.690247 225.411026,220.766129 215.278107,218.863831 
	C214.067719,218.636581 213.115540,217.034027 212.043701,216.068970 
	C212.969391,215.116089 213.845688,213.386734 214.828003,213.324280 
	C237.241486,211.898895 259.751526,209.473541 281.993317,214.332245 
	C299.880432,218.239685 309.247681,235.567398 302.638763,251.307129 
	C299.606323,258.529205 293.553986,262.560669 286.716827,265.641449 
	C285.428070,266.222137 284.141266,266.807251 281.765350,267.883087 
	C285.464355,269.059143 288.070831,269.849640 290.652283,270.714874 
	C305.594513,275.723145 313.847321,286.890869 313.793732,301.997314 
	C313.741394,316.747772 305.031555,328.820679 290.783661,333.703461 
	C278.597168,337.879822 265.944458,337.892334 253.269104,337.780151 
	C240.791214,337.669708 228.310272,337.829132 215.834778,337.622284 
	C214.370789,337.598022 212.932831,336.003143 211.482803,335.136414 
	C212.407394,334.047363 213.151108,332.275391 214.284607,331.975189 
	C225.263321,329.067505 225.281998,329.138000 227.022568,317.079041 
	C227.627686,315.596039 227.965027,314.796661 227.966095,313.996857 
	C227.997833,290.244537 228.011185,266.492157 227.957809,242.739929 
	C227.955017,241.491898 227.341171,240.245239 227.011780,238.997940 
M251.460266,324.876648 
	C257.340729,330.782104 268.929199,331.883728 277.488831,327.350952 
	C289.644440,320.913940 293.847595,303.463196 286.683441,289.571106 
	C279.532898,275.705383 264.130249,272.666840 251.546753,274.254791 
	C250.192993,274.425629 248.248566,277.460083 248.201584,279.209717 
	C247.911041,290.034271 247.819427,300.881592 248.238754,311.698975 
	C248.401871,315.907166 250.065598,320.057220 251.460266,324.876648 
M264.801666,265.867035 
	C270.083679,264.523163 275.253601,262.620148 277.839905,257.497589 
	C282.628265,248.013718 283.205261,238.060135 277.459167,228.915375 
	C271.967773,220.175995 262.807251,218.702087 253.223663,219.306747 
	C249.870575,219.518295 248.073212,221.376007 248.070435,224.802902 
	C248.060303,237.293640 248.066467,249.784393 248.050964,262.275116 
	C248.047272,265.253784 249.642899,266.461700 252.454559,266.373474 
	C256.279907,266.253479 260.104736,266.117706 264.801666,265.867035 
z"/>
<path fill="#F19121" opacity="1.000000" stroke="none" 
	d="
M236.062347,148.885101 
	C219.778030,154.907669 211.226730,166.820450 208.771606,186.871872 
	C198.644089,186.871872 188.462173,186.871872 177.648941,186.871872 
	C178.309052,161.499207 188.296585,141.097733 209.083176,126.961769 
	C232.649017,110.935753 257.886688,109.751343 282.712341,123.628662 
	C306.873535,137.134537 318.431274,158.875809 319.675690,186.871246 
	C309.054840,186.871246 298.878021,186.871246 288.401093,186.871246 
	C287.396515,171.882446 281.205231,159.864014 268.188080,152.105377 
	C258.218079,146.162933 247.515274,145.208145 236.062347,148.885101 
z"/>
<path fill="#922124" opacity="1.000000" stroke="none" 
	d="
M155.930084,340.182434 
	C145.978577,340.405060 136.976685,338.557251 128.307236,334.637543 
	C124.426918,332.883118 122.001625,330.171600 121.329155,326.220337 
	C120.188087,319.515778 119.335091,312.749756 118.737213,305.976379 
	C118.627220,304.730255 120.300171,303.326782 121.150146,301.995941 
	C122.489403,302.919220 124.260788,303.555847 125.095345,304.813934 
	C129.385269,311.280975 132.924210,318.311890 137.715805,324.361450 
	C142.224686,330.054016 148.931244,332.640259 156.334320,332.486359 
	C174.140457,332.116180 183.764877,315.385834 174.375870,299.885193 
	C170.926926,294.191223 164.981079,289.759399 159.532318,285.590820 
	C152.823837,280.458496 144.936646,276.814972 138.460968,271.440979 
	C124.870529,260.162659 120.990067,243.190842 128.225204,228.735580 
	C135.013885,215.172348 147.264465,209.826614 161.470459,209.548553 
	C170.330597,209.375137 179.255081,211.383820 188.101105,212.737289 
	C189.494797,212.950546 191.488846,214.726257 191.732391,216.050430 
	C192.994385,222.912323 193.905624,229.849640 194.587921,236.795181 
	C194.687576,237.809616 192.771912,240.006668 192.014908,239.908707 
	C190.588043,239.724091 188.896225,238.547928 188.071472,237.288315 
	C184.923599,232.480515 182.883209,226.671890 178.942734,222.718719 
	C171.732330,215.485046 162.558792,215.239838 153.402908,219.029129 
	C146.671646,221.814957 142.497147,229.359161 142.988342,237.435959 
	C143.446106,244.962921 147.461975,250.750977 153.395233,254.849426 
	C159.530609,259.087433 166.194214,262.567169 172.667465,266.308105 
	C183.193573,272.391205 191.860916,280.110626 195.574936,292.190765 
	C201.874100,312.679260 190.933533,332.574951 170.180359,338.033966 
	C165.712280,339.209290 161.007523,339.484833 155.930084,340.182434 
z"/>
<path fill="#932225" opacity="1.000000" stroke="none" 
	d="
M68.315384,292.999817 
	C68.260956,271.850372 68.322594,251.199722 68.101433,230.552094 
	C67.996269,220.733856 66.763924,219.730423 57.389980,217.655365 
	C55.803188,217.304108 54.583321,215.295319 53.193932,214.052338 
	C54.765282,213.315018 56.329323,211.955994 57.909115,211.937439 
	C72.227371,211.769150 86.549065,211.773743 100.867508,211.931488 
	C102.236885,211.946579 103.591026,213.344818 104.952240,214.100952 
	C103.730400,215.298721 102.684753,217.235504 101.258423,217.575592 
	C91.190620,219.975998 90.074600,220.941116 90.028214,231.599686 
	C89.902832,260.408966 89.907333,289.219452 90.022781,318.028809 
	C90.064117,328.344177 91.481514,329.637909 101.497467,331.875061 
	C102.848877,332.176910 103.812386,334.215424 104.955505,335.449768 
	C103.574310,336.206238 102.200462,337.604401 100.810791,337.620300 
	C86.335609,337.785980 71.857216,337.792664 57.381985,337.634583 
	C55.976929,337.619232 54.587162,336.204376 53.190308,335.439148 
	C54.357265,334.208130 55.345074,332.182556 56.719707,331.872620 
	C67.107513,329.530548 67.883095,328.850769 68.151863,317.977386 
	C68.353447,309.821808 68.271225,301.659271 68.315384,292.999817 
z"/>
<path fill="#EA6A24" opacity="1.000000" stroke="none" 
	d="
M224.244080,174.437286 
	C231.166367,163.015518 241.454330,157.687775 252.586075,159.507843 
	C264.139191,161.396805 272.774628,169.781616 275.347565,181.685089 
	C275.689423,183.266586 275.759399,184.906845 276.005066,186.929703 
	C257.628754,186.929703 239.643845,186.929703 220.558319,186.929703 
	C221.830215,182.537689 222.954163,178.656586 224.244080,174.437286 
z"/>
<path fill="#5F5F5F" opacity="1.000000" stroke="none" 
	d="
M148.999908,412.202637 
	C116.607086,412.202637 84.714272,412.202637 52.821461,412.202637 
	C52.822800,411.748871 52.824135,411.295135 52.825470,410.841370 
	C182.149078,410.841370 311.472687,410.841370 440.796295,410.841370 
	C440.798706,411.295105 440.801117,411.748871 440.803497,412.202606 
	C392.354492,412.202606 343.905457,412.202606 295.456421,412.202606 
	C246.804245,412.202606 198.152084,412.202637 148.999908,412.202637 
z"/>
<path fill="#424242" opacity="1.000000" stroke="none" 
	d="
M53.433662,367.018555 
	C53.433701,362.559387 53.433701,358.596588 53.433701,354.081696 
	C59.670616,354.303131 65.997818,352.417084 70.335365,358.022980 
	C73.543808,362.169617 73.905487,366.900726 70.346962,371.303467 
	C71.979950,373.257050 73.942566,374.924591 75.038116,377.040955 
	C78.561119,383.846802 73.877281,392.108521 66.026138,392.880920 
	C62.090321,393.268127 58.084953,392.948456 53.433620,392.948456 
	C53.433620,384.350922 53.433620,375.932922 53.433662,367.018555 
M59.150089,377.822968 
	C59.150089,380.893524 59.150089,383.964111 59.150089,387.427124 
	C61.992634,387.224792 64.441193,387.675049 66.152824,386.754761 
	C67.899948,385.815399 69.766266,383.640015 70.006592,381.800171 
	C70.212463,380.224030 68.529800,377.324860 67.082108,376.853210 
	C64.721886,376.084259 61.872726,376.816010 59.150089,377.822968 
M59.543827,370.609711 
	C65.102554,370.651581 67.375801,368.910645 67.032730,364.663971 
	C66.650841,359.936768 63.614162,359.193970 59.204578,360.016541 
	C59.204578,363.288971 59.204578,366.550659 59.543827,370.609711 
z"/>
<path fill="#3D3D3D" opacity="1.000000" stroke="none" 
	d="
M298.559021,354.157227 
	C300.749542,355.896576 302.577789,357.503052 304.711029,359.377502 
	C302.967773,360.590393 301.765961,361.426575 301.016541,361.947998 
	C298.216705,360.867218 295.876923,359.297852 293.532562,359.290955 
	C291.944183,359.286316 289.610809,361.196960 289.008514,362.782135 
	C288.583435,363.900696 290.153595,366.334198 291.464600,367.413269 
	C293.067810,368.732819 295.361938,369.186890 297.303741,370.125977 
	C304.225220,373.473206 306.558167,378.109009 304.878113,385.041626 
	C303.652771,390.097931 298.501221,393.850616 292.919189,393.753204 
	C286.415955,393.639771 282.552155,389.997498 281.066925,382.300537 
	C282.750977,381.831024 284.463470,381.353607 286.386993,380.817352 
	C286.915009,382.239746 287.020172,383.874908 287.881378,384.560791 
	C289.658264,385.975952 291.863312,387.787476 293.845276,387.732849 
	C295.616638,387.684052 298.306824,385.634460 298.803680,383.942657 
	C299.379059,381.983490 298.635284,378.928009 297.299988,377.308258 
	C295.851715,375.551483 293.108246,374.798706 290.850098,373.785248 
	C283.962524,370.694153 281.236603,365.901733 283.189026,360.114563 
	C284.983185,354.796448 291.474213,352.162384 298.559021,354.157227 
z"/>
<path fill="#3F3F3F" opacity="1.000000" stroke="none" 
	d="
M346.948059,384.058655 
	C346.948029,387.168732 346.948029,389.802399 346.948029,392.740814 
	C344.880341,392.740814 343.178162,392.740814 341.250854,392.740814 
	C341.250854,378.658783 341.250854,364.755554 341.250854,350.498047 
	C342.980835,350.384888 344.569916,350.280914 346.755768,350.137939 
	C346.755768,356.604034 346.755768,362.818542 346.755768,369.456512 
	C348.478760,368.840973 349.526428,368.371643 350.622406,368.090881 
	C356.695953,366.534821 361.380737,369.648987 361.780609,375.950623 
	C362.126038,381.394073 361.852325,386.876831 361.852325,392.735413 
	C360.057892,392.861084 358.490845,392.970856 356.200195,393.131287 
	C356.200195,388.203033 356.220581,383.612305 356.192902,379.021851 
	C356.175049,376.063782 355.989105,373.072754 351.972137,373.022461 
	C347.917053,372.971649 347.146210,375.831757 347.024628,379.093353 
	C346.968872,380.588501 346.971771,382.085846 346.948059,384.058655 
z"/>
<path fill="#3E3E3E" opacity="1.000000" stroke="none" 
	d="
M203.959015,384.102356 
	C204.966904,384.917969 205.974792,385.733582 206.969040,386.538147 
	C203.812271,392.891571 197.528900,395.415222 191.270157,392.900116 
	C185.385635,390.535370 182.595306,382.631042 185.065079,375.322479 
	C187.051407,369.444519 192.794769,366.466858 199.096664,368.047760 
	C204.146317,369.314514 208.059555,375.143890 207.109421,380.308960 
	C206.979279,381.016418 205.651871,381.503662 203.988098,382.083466 
	C198.872223,382.074066 194.647018,382.074066 190.421829,382.074066 
	C190.133804,382.547791 189.845795,383.021545 189.557785,383.495270 
	C191.308380,385.088898 192.865402,387.588013 194.865295,388.015533 
	C196.776276,388.424042 199.177521,386.746155 201.304092,385.845642 
	C202.263168,385.439484 203.078491,384.693939 203.959015,384.102356 
M194.690994,377.197968 
	C196.731766,377.197968 198.772537,377.197968 201.177902,377.197968 
	C197.883896,371.596954 194.335922,371.594604 190.947784,376.879944 
	C192.004242,376.997131 192.906769,377.097229 194.690994,377.197968 
z"/>
<path fill="#2A2A2A" opacity="1.000000" stroke="none" 
	d="
M265.999695,454.402588 
	C194.758865,454.402618 124.018044,454.402618 53.277218,454.402618 
	C53.277359,454.049286 53.277504,453.695923 53.277645,453.342590 
	C182.396255,453.342590 311.514862,453.342590 440.633484,453.342590 
	C440.637573,453.695892 440.641632,454.049164 440.645721,454.402466 
	C411.752075,454.402466 382.858429,454.402405 353.964783,454.402435 
	C324.809753,454.402435 295.654755,454.402496 265.999695,454.402588 
z"/>
<path fill="#3F3F3F" opacity="1.000000" stroke="none" 
	d="
M387.257629,368.171143 
	C394.691437,371.697266 397.341217,376.707214 395.938782,383.948273 
	C394.932434,389.144257 390.336823,393.138397 384.720947,393.697998 
	C377.618195,394.405762 371.506744,389.386414 370.956635,382.393372 
	C370.299927,374.045166 375.163727,368.067413 382.891754,367.797577 
	C384.210297,367.751526 385.537933,367.964783 387.257629,368.171143 
M379.010101,374.517303 
	C374.843719,380.233185 376.171539,387.503754 381.797760,388.037018 
	C384.268677,388.271240 388.345612,386.833313 389.213409,384.988281 
	C390.398651,382.468262 390.116333,378.392670 388.833618,375.785675 
	C387.035004,372.130096 383.201172,372.279480 379.010101,374.517303 
z"/>
<path fill="#3F3F3F" opacity="1.000000" stroke="none" 
	d="
M424.246094,391.394562 
	C417.609741,394.840240 412.087708,394.337799 407.864899,390.173889 
	C404.047668,386.409851 402.866516,379.723358 405.165375,374.891479 
	C407.537537,369.905518 413.021973,367.039642 418.879974,367.895294 
	C423.964172,368.637939 427.471954,371.577271 428.922424,376.444641 
	C430.628357,382.169098 429.542938,387.308746 424.246094,391.394562 
M423.870697,382.180115 
	C424.196503,377.782013 423.042816,374.130890 418.223572,373.140533 
	C414.317963,372.337982 411.397827,374.054260 410.144897,377.927399 
	C408.783905,382.134674 410.691742,386.756683 414.103485,388.018066 
	C418.197144,389.531586 421.417603,387.846802 423.870697,382.180115 
z"/>
<path fill="#E8702F" opacity="1.000000" stroke="none" 
	d="
M243.870804,70.517715 
	C247.181259,62.233814 243.517441,55.921188 238.904800,49.486252 
	C240.114334,48.339638 241.261932,47.251724 242.393326,46.179180 
	C249.620575,52.234573 252.473419,62.730751 249.379669,71.592545 
	C248.613266,73.787888 247.649277,75.916557 246.727859,78.055092 
	C243.240799,86.148216 243.837341,90.771545 250.028412,101.558464 
	C248.765305,102.540970 247.435318,103.575485 246.023972,104.673286 
	C237.022736,93.613785 237.332443,82.445747 243.870804,70.517715 
z"/>
<path fill="#E8702F" opacity="1.000000" stroke="none" 
	d="
M208.288635,53.204453 
	C209.073685,52.789352 209.908768,52.297131 210.187592,52.515427 
	C217.445099,58.197506 222.647263,64.991203 221.754227,74.887680 
	C221.590164,76.705833 221.442459,78.564651 220.945099,80.307053 
	C218.166946,90.039764 221.989746,97.485199 229.457718,103.918060 
	C228.336441,105.418938 227.402176,106.669479 226.482727,107.900208 
	C217.118805,101.900826 212.678467,92.208580 215.212128,81.101120 
	C217.354568,71.708710 215.886047,64.088600 208.208817,57.858765 
	C207.465134,57.255299 208.089920,54.965446 208.288635,53.204453 
z"/>
<path fill="#E86E2D" opacity="1.000000" stroke="none" 
	d="
M155.512909,188.888153 
	C149.357529,189.884003 144.003128,188.613785 139.415817,185.303085 
	C130.796341,179.082367 122.315125,178.417038 113.419060,185.458878 
	C112.339203,183.792587 111.481529,182.469147 110.665329,181.209702 
	C116.996033,174.831268 127.489861,172.919968 135.273117,176.522919 
	C135.876846,176.802368 136.510849,177.062805 137.036514,177.457596 
	C145.835083,184.065063 155.017899,185.930038 165.019150,179.098602 
	C165.994858,180.944550 166.721237,182.318802 167.883636,184.517929 
	C163.603973,186.059113 159.775253,187.437897 155.512909,188.888153 
z"/>
<path fill="#E87030" opacity="1.000000" stroke="none" 
	d="
M160.337158,119.701324 
	C157.062943,109.678978 149.635513,106.267128 140.109497,106.103600 
	C140.109497,104.083229 140.109497,102.506805 140.109497,100.621208 
	C150.904770,100.932167 159.907013,103.952812 164.020218,114.570587 
	C167.854263,124.467812 173.937729,130.988297 185.612991,131.165787 
	C185.434662,133.323746 185.294250,135.022934 185.141357,136.873169 
	C173.275299,135.983063 164.669495,131.235672 160.337158,119.701324 
z"/>
<path fill="#E87131" opacity="1.000000" stroke="none" 
	d="
M349.089966,149.875458 
	C351.854889,150.177444 354.189941,150.347458 356.463104,150.816971 
	C364.242981,152.423767 370.593170,150.239456 375.492126,143.938919 
	C376.294922,142.906494 377.158478,141.921310 378.223541,140.637543 
	C379.667542,141.639038 380.956299,142.532867 382.212677,143.404251 
	C376.853149,153.578720 368.169128,158.166412 357.441010,156.709793 
	C343.581085,154.827942 342.105743,155.335114 332.078613,165.598877 
	C330.843018,164.648819 329.573181,163.672394 327.922516,162.403152 
	C333.424927,155.438843 339.432220,150.104340 349.089966,149.875458 
z"/>
<path fill="#E87030" opacity="1.000000" stroke="none" 
	d="
M303.947815,92.909912 
	C296.060608,98.142433 294.457916,105.696152 295.146271,114.559883 
	C293.363495,114.768509 291.815948,114.949615 289.867126,115.177673 
	C288.870575,105.268135 290.351654,96.671700 298.240540,90.199059 
	C299.907776,88.831108 301.650055,87.517838 303.497284,86.412598 
	C310.047852,82.493240 312.710052,76.674675 312.237427,69.208443 
	C312.143677,67.727386 312.223907,66.235306 312.223907,64.333305 
	C313.783142,64.070740 315.315399,63.812714 316.793640,63.563786 
	C320.503845,74.861198 316.239258,84.572037 303.947815,92.909912 
z"/>
<path fill="#E8702F" opacity="1.000000" stroke="none" 
	d="
M339.153534,178.035065 
	C345.791504,174.582977 352.445160,173.963898 358.708954,177.153778 
	C368.473328,182.126312 377.423218,182.663147 385.577332,174.075882 
	C386.521973,174.955750 387.172821,175.451126 387.679840,176.065216 
	C388.192749,176.686508 388.563354,177.425293 388.962250,178.058578 
	C381.786072,186.091385 372.001343,189.162796 362.846802,184.771591 
	C353.009338,180.052811 344.140564,179.335098 335.390045,187.231857 
	C334.162415,185.595840 333.210114,184.326721 331.915466,182.601395 
	C334.431793,180.982269 336.615997,179.576843 339.153534,178.035065 
z"/>
<path fill="#E86F2E" opacity="1.000000" stroke="none" 
	d="
M319.453491,111.313675 
	C315.947083,116.577278 312.748016,121.636574 309.548981,126.695869 
	C309.878571,127.040436 310.208160,127.385010 310.537781,127.729576 
	C309.116821,127.483841 307.695892,127.238106 306.379852,127.010506 
	C306.156891,126.518394 305.873596,126.202202 305.909760,125.928200 
	C307.207825,116.095352 311.278870,108.223724 320.962524,104.104340 
	C335.171234,98.060013 335.146790,98.002518 339.426819,82.930038 
	C340.895844,83.030548 342.452209,83.137024 343.979675,83.241524 
	C343.992004,95.310608 338.852386,103.037468 328.400482,107.244766 
	C325.475922,108.422012 322.638336,109.815216 319.453491,111.313675 
z"/>
<path fill="#E86F2E" opacity="1.000000" stroke="none" 
	d="
M161.314056,154.424530 
	C164.911942,154.483688 168.059082,154.483688 171.710068,154.483688 
	C172.052322,155.553329 172.524567,157.029221 173.148300,158.978561 
	C164.330933,160.840668 156.250961,161.273926 149.199341,155.245636 
	C146.933105,153.308273 144.836273,151.112442 142.955444,148.796509 
	C138.397491,143.184128 132.649506,141.205582 125.627037,142.520782 
	C124.026611,142.820511 122.393829,142.947556 120.542343,143.183914 
	C120.035339,141.501572 119.616211,140.110825 119.202766,138.738922 
	C129.368271,134.237381 139.537430,136.455475 146.854065,144.793320 
	C150.721924,149.201004 154.390625,153.809891 161.314056,154.424530 
z"/>
<path fill="#E86F2E" opacity="1.000000" stroke="none" 
	d="
M286.972198,60.347157 
	C287.851013,67.649902 285.653259,73.448311 281.256744,78.706749 
	C272.201935,89.536781 271.883148,91.210365 274.902283,105.449486 
	C273.514923,105.986565 272.059296,106.550079 270.075378,107.318115 
	C267.279938,98.490318 266.181427,90.210732 271.303741,82.203339 
	C272.638824,80.116272 274.175720,78.097595 275.916901,76.342049 
	C281.860992,70.348946 282.905487,63.428364 280.254456,55.673615 
	C279.887329,54.599651 279.644867,53.483059 279.293427,52.198734 
	C280.785858,51.479298 282.102478,50.844624 284.346222,49.763016 
	C285.258759,53.349541 286.092377,56.625874 286.972198,60.347157 
z"/>
<path fill="#E8702F" opacity="1.000000" stroke="none" 
	d="
M191.595886,102.014343 
	C195.718857,106.650291 199.653564,110.934708 203.588257,115.219116 
	C204.092789,114.944725 204.597321,114.670334 205.101852,114.395943 
	C204.635132,115.892212 204.168396,117.388474 203.713791,118.845901 
	C194.403763,117.125023 185.983002,108.796318 185.286072,99.348923 
	C184.464615,88.213715 181.034592,79.486061 168.885773,76.398453 
	C169.575668,74.317886 170.072067,72.820854 170.557480,71.356964 
	C181.741425,73.763161 188.692184,81.574219 190.006729,92.799751 
	C190.354340,95.768082 190.934326,98.709206 191.595886,102.014343 
z"/>
<path fill="#E8702F" opacity="1.000000" stroke="none" 
	d="
M365.576233,111.748642 
	C366.442383,113.114388 367.728363,114.685585 367.359650,115.555275 
	C363.888428,123.742767 358.760651,130.649231 349.118561,131.249832 
	C338.024109,131.940903 328.823425,134.960007 324.779449,146.700684 
	C322.863586,145.806625 321.539520,145.188721 320.250610,144.587219 
	C322.793640,134.490768 330.658722,127.232826 342.122040,126.542931 
	C352.068024,125.944344 358.978119,122.411980 362.667450,113.014404 
	C362.938568,112.323792 364.348145,112.080124 365.576233,111.748642 
z"/>
<path fill="#424242" opacity="1.000000" stroke="none" 
	d="
M105.431091,386.038086 
	C103.156654,392.289734 99.261749,394.630341 93.406174,393.592346 
	C88.266563,392.681274 85.295433,389.100586 85.156685,383.352081 
	C85.041077,378.562256 85.132988,373.767395 85.132988,368.652435 
	C87.122948,368.652435 88.684906,368.652435 90.888657,368.652435 
	C90.888657,373.379517 90.857224,377.987000 90.899643,382.593811 
	C90.928223,385.697876 91.723068,388.370087 95.535408,388.352966 
	C99.433189,388.335480 99.980377,385.527832 100.002327,382.478668 
	C100.034554,378.002106 100.010635,373.525116 100.010635,368.682068 
	C102.019798,368.682068 103.724304,368.682068 105.550201,368.682068 
	C105.550201,374.443115 105.550201,380.040802 105.431091,386.038086 
z"/>
<path fill="#383838" opacity="1.000000" stroke="none" 
	d="
M175.490555,387.756226 
	C175.490463,389.692719 175.490463,391.163208 175.490463,392.803223 
	C173.464523,392.803223 171.888855,392.803223 169.856552,392.803223 
	C169.856552,387.957611 169.974350,383.328003 169.811295,378.708282 
	C169.717194,376.042542 169.447906,373.197083 165.726395,372.964630 
	C161.927994,372.727417 160.721100,375.213654 160.588776,378.289429 
	C160.389191,382.929077 160.536728,387.583649 160.536728,392.730621 
	C158.554428,392.856873 157.013657,392.955017 155.103134,393.076691 
	C155.103134,384.872131 155.103134,376.970428 155.103134,369.053741 
	C159.363068,368.652222 163.687347,367.903839 168.006760,367.931000 
	C172.544235,367.959503 174.886917,371.041809 175.247543,375.329498 
	C175.581070,379.295166 175.428909,383.301727 175.490555,387.756226 
z"/>
<path fill="#404040" opacity="1.000000" stroke="none" 
	d="
M332.970795,374.510986 
	C332.263672,374.945587 331.398041,375.258911 330.900421,374.959869 
	C326.322937,372.209045 322.914062,372.444031 320.337921,375.821381 
	C318.156250,378.681580 318.328766,384.003418 320.987610,386.409576 
	C324.367767,389.468384 327.878448,389.058624 331.227020,386.140350 
	C331.578949,385.833588 332.048889,385.662201 332.493195,385.411591 
	C334.184998,392.114136 333.289490,393.786194 324.745544,393.614807 
	C319.486847,393.509308 315.752045,390.470276 313.881836,385.438751 
	C311.952972,380.249329 312.998322,375.595886 316.737946,371.612427 
	C320.422058,367.688110 325.042236,367.132751 330.077698,368.216583 
	C333.611206,368.977051 332.976624,371.670837 332.970795,374.510986 
z"/>
<path fill="#404040" opacity="1.000000" stroke="none" 
	d="
M130.757751,382.775452 
	C131.725357,388.040619 130.274048,391.724518 125.265106,393.320190 
	C120.594810,394.807983 117.147514,393.054993 113.628639,386.398956 
	C116.598778,386.903442 118.503769,387.337891 120.432541,387.519012 
	C121.933861,387.659973 123.464821,387.485413 124.982605,387.451050 
	C124.443604,386.079346 124.176208,384.483063 123.283745,383.403534 
	C122.502983,382.459076 121.050446,382.025696 119.840424,381.488861 
	C116.563499,380.034943 114.875587,377.606812 115.426987,374.002716 
	C115.962135,370.504761 118.046333,368.344788 121.630104,367.839142 
	C125.279747,367.324188 127.071793,368.442108 129.888123,373.656891 
	C127.498940,373.656891 125.681992,373.609589 123.869232,373.676178 
	C122.909843,373.711395 121.957726,373.944702 121.002327,374.088623 
	C121.543976,374.989258 121.888824,376.143799 122.663322,376.743927 
	C125.235123,378.736938 127.961479,380.530487 130.757751,382.775452 
z"/>
<path fill="#414141" opacity="1.000000" stroke="none" 
	d="
M227.556793,369.052124 
	C228.640381,370.289856 229.398392,371.313995 231.280640,373.857117 
	C227.952820,373.650726 226.020599,373.459930 224.086899,373.443787 
	C223.242935,373.436768 222.395996,373.787628 221.550415,373.975952 
	C221.898651,374.789307 222.029404,375.887909 222.641754,376.354828 
	C223.806656,377.243073 225.233139,377.798920 226.575516,378.441559 
	C229.795059,379.982941 232.667313,382.346344 231.640228,386.011841 
	C230.892975,388.678619 228.704330,391.634888 226.321503,392.983124 
	C222.973557,394.877502 219.195221,393.934692 216.486847,390.727142 
	C215.863068,389.988403 215.407257,389.107849 214.685867,388.004669 
	C216.980453,386.344574 218.754257,384.541351 221.403793,387.585571 
	C221.960342,388.225037 224.229401,387.374054 225.709351,387.209869 
	C225.179565,385.960236 224.872910,384.529205 224.050507,383.517426 
	C223.373184,382.684052 222.087479,382.342163 221.066330,381.791870 
	C216.234024,379.187775 214.723557,375.812073 216.602951,371.807220 
	C218.384842,368.010132 222.004745,366.999023 227.556793,369.052124 
z"/>
<path fill="#404040" opacity="1.000000" stroke="none" 
	d="
M247.729111,393.694275 
	C243.080780,393.889038 240.072220,392.094116 237.576279,386.376556 
	C240.613800,386.893585 242.537628,387.331543 244.485489,387.516785 
	C245.979568,387.658905 247.503937,387.482330 249.014847,387.447449 
	C248.479935,386.072723 248.181351,384.521912 247.331818,383.381622 
	C246.704849,382.540039 245.389038,382.165466 244.328064,381.701965 
	C240.946259,380.224579 238.398849,377.754639 239.592407,374.051849 
	C240.341934,371.726624 242.566620,369.264954 244.776581,368.166718 
	C248.039551,366.545288 250.613770,368.141357 254.148575,373.323914 
	C251.402664,373.323914 249.435638,373.292664 247.470490,373.339874 
	C246.726013,373.357788 245.985901,373.556396 245.243790,373.672607 
	C245.447479,374.535858 245.374619,375.703857 245.915924,376.195068 
	C246.866592,377.057739 248.163513,377.571930 249.368011,378.115540 
	C252.941162,379.728119 255.601532,381.863556 255.111038,386.368408 
	C254.642456,390.671997 252.063263,392.772125 247.729111,393.694275 
z"/>
<path fill="#454545" opacity="1.000000" stroke="none" 
	d="
M443.971222,351.532440 
	C444.042755,365.446228 444.042755,378.910828 444.042755,392.781464 
	C442.273041,392.896332 440.719421,392.997192 438.759094,393.124420 
	C438.759094,378.764404 438.759094,364.742584 438.759094,350.008057 
	C440.650269,350.403625 442.274963,350.743469 443.971222,351.532440 
z"/>
<path fill="#474747" opacity="1.000000" stroke="none" 
	d="
M135.054718,439.071045 
	C134.531372,440.341827 134.119843,441.244049 133.271622,443.103546 
	C130.435684,435.895020 127.897552,429.443481 125.359421,422.991943 
	C125.860748,422.720612 126.362083,422.449310 126.863419,422.178009 
	C131.192719,424.708008 130.224716,430.747559 133.616608,434.230804 
	C135.167984,430.217194 136.653885,426.372986 138.467148,421.681885 
	C140.270554,426.454956 141.796310,430.493164 143.342041,434.584259 
	C146.338165,430.752686 146.032196,424.971405 150.089523,422.033966 
	C150.627853,422.334534 151.166168,422.635101 151.704498,422.935638 
	C149.068954,429.442322 146.433411,435.949005 143.441711,443.334930 
	C141.678619,438.715363 140.196152,434.831116 138.430801,430.205658 
	C137.165207,433.499969 136.165863,436.101196 135.054718,439.071045 
z"/>
<path fill="#EF9832" opacity="1.000000" stroke="none" 
	d="
M205.515182,106.460693 
	C200.566498,101.180450 198.927917,95.168976 199.017136,88.379822 
	C199.064682,84.762428 200.183914,82.737129 204.955215,82.406975 
	C203.123154,93.449524 206.154205,102.521591 216.782669,108.043015 
	C215.841461,109.829102 215.105530,111.225609 213.954559,113.409737 
	C210.999344,110.991577 208.383575,108.851181 205.515182,106.460693 
z"/>
<path fill="#EF962E" opacity="1.000000" stroke="none" 
	d="
M232.995316,103.212692 
	C227.070175,95.567711 224.508942,87.661858 227.423660,78.312752 
	C228.484451,74.910271 229.836548,73.089203 233.795303,73.737274 
	C233.191422,78.634163 231.519791,83.753998 232.265961,88.493141 
	C233.024002,93.307449 236.166748,97.746269 238.485550,102.832985 
	C237.270142,103.930756 236.196136,107.517563 232.995316,103.212692 
z"/>
<path fill="#EF952C" opacity="1.000000" stroke="none" 
	d="
M261.614075,99.880692 
	C261.050354,101.886200 260.331146,103.570335 259.291229,106.005531 
	C251.992264,95.991333 251.906143,83.414246 258.520660,75.167099 
	C259.665527,73.739616 262.335175,73.535011 265.021240,73.495750 
	C259.478394,82.017342 256.815338,90.318832 261.614075,99.880692 
z"/>
<path fill="#4B4B4B" opacity="1.000000" stroke="none" 
	d="
M184.918900,441.261475 
	C183.386978,439.121613 182.071136,437.277863 180.665833,435.308746 
	C180.260971,435.871704 180.031662,436.076996 179.943527,436.331207 
	C179.283508,438.234955 178.651398,440.148315 178.010544,442.058685 
	C177.572754,440.147003 176.838028,438.247864 176.756927,436.321167 
	C176.569000,431.856812 176.697144,427.379150 176.697144,422.733368 
	C180.785919,421.957001 184.958649,421.783844 186.577316,425.552826 
	C187.579712,427.886810 185.954163,431.349365 185.508286,434.305328 
	C184.949036,434.307526 184.389786,434.309723 183.830521,434.311920 
	C185.457932,436.720062 187.085327,439.128174 189.175247,442.220734 
	C187.290253,441.911316 186.212616,441.734436 184.918900,441.261475 
z"/>
<path fill="#EF9730" opacity="1.000000" stroke="none" 
	d="
M286.769836,81.844620 
	C289.052795,81.616989 291.072266,81.616989 293.091766,81.616989 
	C293.443726,82.073662 293.795685,82.530334 294.147614,82.987000 
	C284.570404,89.428871 281.990936,98.361427 284.363251,109.056229 
	C282.404541,109.449585 281.003082,109.731033 279.215271,110.090057 
	C276.771729,99.197678 277.800507,89.666069 286.769836,81.844620 
z"/>
<path fill="#EF962E" opacity="1.000000" stroke="none" 
	d="
M167.187531,147.001373 
	C161.263245,145.534546 156.928635,142.520905 153.394180,137.989838 
	C150.959869,134.869095 150.364563,132.221024 154.090729,128.599442 
	C158.713547,138.500687 166.621490,143.188995 177.739838,141.983078 
	C177.864899,144.011902 177.952377,145.431183 178.097931,147.792862 
	C174.326431,147.529724 170.960526,147.294876 167.187531,147.001373 
z"/>
<path fill="#EF962F" opacity="1.000000" stroke="none" 
	d="
M177.676971,119.296486 
	C175.714432,115.834045 173.951431,112.662514 172.289413,109.438919 
	C170.512665,105.992828 171.366501,103.425415 175.872345,101.480354 
	C177.531464,112.413414 183.246475,119.875229 194.652344,121.906151 
	C194.476547,123.156937 194.421051,123.947105 194.242981,124.708618 
	C194.061951,125.482971 193.760147,126.229080 193.437485,127.212265 
	C187.244354,126.329620 182.259109,123.623047 177.676971,119.296486 
z"/>
<path fill="#464646" opacity="1.000000" stroke="none" 
	d="
M438.736328,434.727722 
	C437.522736,440.001221 434.416199,442.523438 429.406647,442.420258 
	C424.918762,442.327850 420.931946,438.750824 420.233582,433.990173 
	C419.535400,429.230377 421.489471,425.517975 425.699097,423.161926 
	C429.889374,420.816772 433.466034,421.723602 437.161682,427.279602 
	C435.960754,426.888245 434.651550,426.685974 433.578430,426.071411 
	C429.804199,423.910034 426.773071,425.055115 424.448029,428.227051 
	C422.186981,431.311707 423.085724,435.879547 426.053375,438.063629 
	C429.425964,440.545776 432.233002,439.854462 435.112152,435.776306 
	C433.643616,434.943451 432.167725,434.106384 430.691833,433.269348 
	C430.888031,432.834717 431.084229,432.400116 431.280426,431.965515 
	C433.726440,432.975739 437.418732,428.933899 438.736328,434.727722 
z"/>
<path fill="#EF962D" opacity="1.000000" stroke="none" 
	d="
M159.710541,174.001007 
	C153.646774,174.600586 148.468765,173.616974 143.656937,170.403915 
	C140.350693,168.196228 139.139542,165.792892 141.674347,161.572693 
	C148.940109,168.882462 157.454712,170.591995 167.250046,166.044983 
	C167.995987,167.919418 168.563614,169.345810 169.442795,171.555084 
	C166.058578,172.431274 163.109802,173.194717 159.710541,174.001007 
z"/>
<path fill="#EF962D" opacity="1.000000" stroke="none" 
	d="
M312.823730,100.721771 
	C304.925598,105.055473 303.891296,112.589096 302.699188,120.244820 
	C301.072479,120.244820 299.528870,120.244820 297.494873,120.244820 
	C298.016388,110.343590 300.403351,102.019875 309.004730,96.378731 
	C312.450989,94.118530 314.910034,93.983795 317.353973,98.084038 
	C315.896179,98.917259 314.507080,99.711220 312.823730,100.721771 
z"/>
<path fill="#EF962D" opacity="1.000000" stroke="none" 
	d="
M319.515045,133.548370 
	C318.216583,138.832748 315.744293,135.666458 313.581879,135.106995 
	C315.964691,124.067863 323.212738,115.858459 331.817413,114.910530 
	C333.509644,114.724106 335.421631,116.532440 337.227417,118.250328 
	C328.694305,120.662682 322.406464,124.898438 319.515045,133.548370 
z"/>
<path fill="#464646" opacity="1.000000" stroke="none" 
	d="
M170.101624,424.936279 
	C173.243042,428.495544 174.163773,432.189301 172.395416,436.270691 
	C170.099823,441.568970 164.184586,443.878845 159.111679,441.584900 
	C153.860092,439.210175 151.649551,432.927460 154.217484,427.674835 
	C156.663330,422.671936 162.670410,420.698975 167.777359,423.258453 
	C168.510910,423.626038 169.145279,424.191528 170.101624,424.936279 
M156.948303,435.435150 
	C160.833694,440.425171 166.242584,441.124268 168.563782,436.420532 
	C169.716293,434.085022 169.647110,429.976288 168.266891,427.921875 
	C167.107544,426.196228 162.945648,425.183990 160.649628,425.813354 
	C156.610901,426.920532 155.522354,430.606049 156.948303,435.435150 
z"/>
<path fill="#EF9730" opacity="1.000000" stroke="none" 
	d="
M330.423523,155.227539 
	C328.445374,155.270584 326.662537,155.034241 324.227997,154.711502 
	C329.396667,146.191925 335.042206,140.534058 344.103912,139.222824 
	C348.279938,138.618576 350.496277,139.989563 350.292450,144.934174 
	C341.490631,143.792374 335.245605,147.859100 330.423523,155.227539 
z"/>
<path fill="#494949" opacity="1.000000" stroke="none" 
	d="
M416.843140,425.522522 
	C416.843933,431.253876 416.843933,436.538361 416.843933,442.657928 
	C412.237610,437.854126 408.239166,433.684265 404.240723,429.514374 
	C403.795654,429.703217 403.350555,429.892090 402.905487,430.080933 
	C402.905487,432.309845 403.022095,434.546753 402.869202,436.765137 
	C402.743011,438.596222 402.298004,440.405334 401.994263,442.224182 
	C401.397430,442.123444 400.800629,442.022736 400.203796,441.921997 
	C400.203796,435.423248 400.203796,428.924469 400.203796,421.565216 
	C404.790070,426.376099 408.844666,430.629242 413.749634,435.774445 
	C413.749634,430.661591 413.749634,426.632141 413.749634,422.602661 
	C414.223572,422.455902 414.697479,422.309143 415.171417,422.162384 
	C415.728394,423.133453 416.285370,424.104553 416.843140,425.522522 
z"/>
<path fill="#464646" opacity="1.000000" stroke="none" 
	d="
M374.074036,438.840576 
	C373.631958,440.201019 373.190155,441.104431 372.748352,442.007843 
	C372.186523,441.217041 371.157532,440.437653 371.137848,439.633575 
	C370.997406,433.898651 371.062927,428.158691 371.062927,421.109711 
	C376.010864,426.332245 380.058014,430.603973 385.027283,435.849030 
	C385.027283,430.697845 385.027283,426.593140 385.027283,422.048065 
	C388.327362,424.011871 389.022247,431.965210 387.430481,442.818878 
	C383.097565,438.222229 379.061920,433.940948 374.074310,428.649780 
	C374.074310,432.648834 374.074310,435.516174 374.074036,438.840576 
z"/>
<path fill="#EF962E" opacity="1.000000" stroke="none" 
	d="
M333.212860,169.285828 
	C338.588013,164.826477 344.130493,161.795532 351.056702,162.008194 
	C355.063232,162.131226 357.476562,163.443527 356.624573,168.827225 
	C347.767578,165.952499 340.598083,169.307129 334.461212,175.942825 
	C332.275818,173.961563 328.944824,172.646103 333.212860,169.285828 
z"/>
<path fill="#434343" opacity="1.000000" stroke="none" 
	d="
M349.852722,433.120483 
	C351.095093,436.161011 352.202972,438.842529 353.542603,442.084900 
	C349.928406,440.282074 346.986053,437.679108 344.042023,437.677185 
	C341.304321,437.675415 338.564819,440.445801 334.766479,442.595428 
	C338.258820,434.926361 341.223450,428.416107 344.471497,421.283539 
	C346.438782,425.587250 348.078522,429.174347 349.852722,433.120483 
z"/>
<path fill="#424242" opacity="1.000000" stroke="none" 
	d="
M85.136292,430.097839 
	C86.465843,427.237000 87.671738,424.731934 89.303253,421.342743 
	C92.487808,428.568573 95.328461,435.014069 98.639854,442.527679 
	C94.733284,440.430176 91.869469,437.710114 88.976463,437.678711 
	C86.199493,437.648560 83.392258,440.405243 79.654259,442.454956 
	C81.718025,437.832672 83.365326,434.143127 85.136292,430.097839 
z"/>
<path fill="#434343" opacity="1.000000" stroke="none" 
	d="
M282.229553,441.174622 
	C281.180542,441.328583 279.596039,441.445312 279.045929,440.747070 
	C275.242981,435.920166 271.962067,435.943329 267.865143,440.911377 
	C267.286011,441.613708 266.075378,441.795319 263.865784,442.812164 
	C267.334473,435.104065 270.216888,428.698822 273.609131,421.160645 
	C276.727539,428.297821 279.450104,434.529022 282.229553,441.174622 
z"/>
<path fill="#3F3F3F" opacity="1.000000" stroke="none" 
	d="
M52.587212,437.606934 
	C52.587284,432.370911 52.587284,427.586609 52.587284,422.688660 
	C56.820557,422.152344 61.104572,421.804626 62.531776,425.817169 
	C63.400734,428.260223 61.595806,431.654327 60.991955,434.621246 
	C60.586319,434.571289 60.180683,434.521362 59.775043,434.471405 
	C61.320137,436.796600 62.865231,439.121826 64.410324,441.447021 
	C63.983334,441.855957 63.556339,442.264862 63.129349,442.673798 
	C60.778633,440.261932 58.427921,437.850098 55.881729,435.237671 
	C55.576031,437.694946 55.296997,439.937897 55.017963,442.180878 
	C54.436977,442.190399 53.855991,442.199921 53.275005,442.209442 
	C53.045719,440.825836 52.816429,439.442261 52.587212,437.606934 
M56.724506,431.342834 
	C57.908546,430.162354 59.092583,428.981873 60.276646,427.801392 
	C59.003956,426.832214 57.731270,425.863037 56.458584,424.893860 
	C56.064449,425.236908 55.670311,425.579956 55.276176,425.923035 
	C55.503834,427.622772 55.731487,429.322510 56.724506,431.342834 
z"/>
<path fill="#434343" opacity="1.000000" stroke="none" 
	d="
M217.948685,432.069641 
	C216.331879,440.584991 213.134583,442.652100 203.252167,441.768646 
	C203.252167,435.549011 203.252167,429.296844 203.257477,423.042755 
	C211.517273,421.062012 215.992615,423.691437 217.948685,432.069641 
M207.337143,439.022797 
	C212.681976,438.438477 215.069580,436.157715 214.836212,431.859283 
	C214.604584,427.592682 212.126816,425.728027 206.474503,425.620361 
	C206.474503,430.019928 206.474503,434.419678 207.337143,439.022797 
z"/>
<path fill="#474747" opacity="1.000000" stroke="none" 
	d="
M144.885010,386.848633 
	C144.885925,389.109619 144.885925,390.892212 144.885925,392.822571 
	C142.742691,392.822571 141.169098,392.822571 139.340485,392.822571 
	C139.340485,384.701660 139.340485,376.829529 139.340485,368.559814 
	C141.054886,368.480469 142.620239,368.408020 144.884079,368.303253 
	C144.884079,374.577545 144.884079,380.473907 144.885010,386.848633 
z"/>
<path fill="#454545" opacity="1.000000" stroke="none" 
	d="
M245.216248,433.078857 
	C246.058884,436.078247 247.212616,438.894287 248.430573,441.867157 
	C243.383789,443.042786 243.860626,436.900391 240.620972,435.511993 
	C240.059616,437.744843 239.486023,440.026306 238.912430,442.307800 
	C238.349960,442.172302 237.787506,442.036835 237.225037,441.901367 
	C237.225037,435.650391 237.225037,429.399414 237.225037,421.614929 
	C240.579788,422.756500 244.218033,423.071381 246.462448,425.004486 
	C248.966049,427.160919 248.018585,430.490723 245.216248,433.078857 
M244.204330,430.112366 
	C245.982880,426.061371 243.376541,425.723328 240.192749,425.436249 
	C240.192749,427.422546 240.192749,429.180206 240.192749,431.290955 
	C241.506836,431.082306 242.591370,430.910126 244.204330,430.112366 
z"/>
<path fill="#424242" opacity="1.000000" stroke="none" 
	d="
M363.546082,423.203430 
	C367.910400,427.408234 367.783722,429.600006 363.015808,434.263092 
	C364.590027,436.603912 366.209900,439.012573 368.015503,441.697418 
	C362.440460,442.908966 362.812592,436.879486 359.657196,435.517029 
	C359.044830,437.794373 358.428589,440.086243 357.812317,442.378143 
	C357.265839,442.221130 356.719360,442.064087 356.172882,441.907074 
	C356.172882,435.534607 356.172882,429.162170 356.172882,422.168762 
	C358.722717,422.487640 360.954437,422.766754 363.546082,423.203430 
M358.961639,428.723785 
	C359.777313,429.536682 360.592987,430.349609 361.408600,431.162537 
	C362.220825,430.253357 363.848083,429.111084 363.669159,428.485443 
	C363.335602,427.319305 361.951355,426.453735 361.004364,425.463013 
	C360.324097,426.273071 359.643860,427.083099 358.961639,428.723785 
z"/>
<path fill="#464646" opacity="1.000000" stroke="none" 
	d="
M257.715393,425.395782 
	C256.343079,426.430267 255.406586,427.463196 254.353531,428.624695 
	C255.599670,429.437622 255.844604,429.701599 256.135742,429.770630 
	C258.210785,430.262726 260.295288,430.714996 262.376770,431.179932 
	C260.223999,432.088470 258.071228,432.997070 255.366837,434.138428 
	C255.366837,434.974609 255.366837,436.707886 255.366837,438.478546 
	C257.889984,438.973541 260.420563,439.470001 262.951141,439.966492 
	C262.847260,440.520233 262.743408,441.074005 262.639557,441.627747 
	C259.307526,441.627747 255.975479,441.627747 252.314209,441.627747 
	C252.314209,435.574371 252.314209,429.335663 252.314209,422.234680 
	C255.822784,422.454712 259.319275,422.673981 262.815796,422.893280 
	C262.793304,423.598694 262.770782,424.304108 262.748291,425.009552 
	C261.215912,425.137787 259.683533,425.266022 257.715393,425.395782 
z"/>
<path fill="#434343" opacity="1.000000" stroke="none" 
	d="
M326.136139,428.673584 
	C327.279449,429.369019 328.381805,429.546661 329.416016,429.915405 
	C330.727722,430.383087 331.984100,431.005951 333.264343,431.561920 
	C331.890533,432.037537 330.536652,432.588470 329.135040,432.958923 
	C328.357819,433.164337 327.500854,433.067993 326.363525,433.122894 
	C326.363525,434.929047 326.363525,436.664154 326.363525,438.448029 
	C328.766907,438.980865 331.228912,439.526703 333.690948,440.072571 
	C333.583923,440.615997 333.476898,441.159454 333.369873,441.702881 
	C330.148743,441.702881 326.927612,441.702881 323.349670,441.702881 
	C323.349670,435.566559 323.349670,429.214417 323.349670,422.138367 
	C326.901947,422.432922 330.246155,422.710205 333.949158,423.017273 
	C331.945435,427.523590 326.081085,422.360321 326.136139,428.673584 
z"/>
<path fill="#434343" opacity="1.000000" stroke="none" 
	d="
M72.012009,438.971924 
	C74.447639,439.319702 76.440956,439.619110 78.434265,439.918488 
	C78.341637,440.522705 78.249008,441.126923 78.156380,441.731140 
	C74.939560,441.731140 71.722748,441.731140 68.179199,441.731140 
	C68.179199,435.559692 68.179199,429.308746 68.179199,423.038971 
	C74.120529,421.575806 76.705544,421.975250 78.255074,424.942474 
	C77.039581,425.089752 75.962173,425.248138 74.879234,425.343964 
	C73.728836,425.445740 72.573181,425.488068 71.153725,425.572144 
	C71.153725,426.926086 71.153725,428.163666 71.153725,429.672394 
	C73.523888,429.845428 75.751320,430.008087 78.219330,430.188263 
	C77.272194,435.100220 73.245979,431.617828 70.865250,434.264923 
	C71.014275,435.250427 71.291992,437.086975 72.012009,438.971924 
z"/>
<path fill="#464646" opacity="1.000000" stroke="none" 
	d="
M103.742722,424.764526 
	C103.749352,429.634613 103.749352,434.078033 103.749352,438.254517 
	C105.935501,439.033508 107.685379,439.657074 109.435257,440.280609 
	C109.287750,440.784332 109.140244,441.288025 108.992729,441.791748 
	C106.414543,441.791748 103.836349,441.791748 100.653442,441.791748 
	C100.653442,435.916534 100.615417,430.015686 100.713043,424.117065 
	C100.722664,423.535736 101.563461,422.968109 102.018448,422.394104 
	C102.590996,423.042023 103.163551,423.689911 103.742722,424.764526 
z"/>
<path fill="#515151" opacity="1.000000" stroke="none" 
	d="
M394.706787,441.845459 
	C393.671753,441.706299 392.460938,441.364532 392.456635,441.008270 
	C392.385223,435.075104 392.439209,429.139557 392.575195,423.207031 
	C392.583313,422.852448 393.517303,422.519104 395.092377,421.444702 
	C395.092377,428.769745 395.092377,435.202911 394.706787,441.845459 
z"/>
<path fill="#494949" opacity="1.000000" stroke="none" 
	d="
M312.893616,422.469482 
	C313.819305,423.967773 314.665588,425.508575 314.754730,427.091980 
	C314.967560,430.873260 314.823425,434.674652 314.823425,438.285309 
	C316.952789,439.045258 318.752106,439.687439 320.551422,440.329620 
	C320.357666,440.839966 320.163910,441.350311 319.970154,441.860657 
	C317.419800,441.860657 314.869446,441.860657 311.621429,441.860657 
	C311.911011,435.264343 312.190460,428.897858 312.893616,422.469482 
z"/>
<path fill="#474747" opacity="1.000000" stroke="none" 
	d="
M289.743958,442.100311 
	C288.025940,442.032806 286.750519,441.964478 285.533325,441.899261 
	C284.116821,430.748535 284.758179,423.975983 287.881439,422.209412 
	C287.881439,427.861389 287.881439,433.221069 287.881439,438.021210 
	C290.225464,439.016724 291.881378,439.720001 293.537292,440.423248 
	C292.420380,440.981995 291.303497,441.540741 289.743958,442.100311 
z"/>
<path fill="#831315" opacity="1.000000" stroke="none" 
	d="
M226.924652,239.459869 
	C227.341171,240.245239 227.955017,241.491898 227.957809,242.739929 
	C228.011185,266.492157 227.997833,290.244537 227.966095,313.996857 
	C227.965027,314.796661 227.627686,315.596039 227.175888,316.715851 
	C226.882294,291.331329 226.859909,265.626587 226.924652,239.459869 
z"/>
<path fill="#454545" opacity="1.000000" stroke="none" 
	d="
M194.935684,428.221924 
	C194.935593,431.975037 194.935593,435.263519 194.935593,438.369049 
	C197.107162,439.052002 198.895889,439.614563 200.684601,440.177124 
	C200.559464,440.688538 200.434311,441.199982 200.309174,441.711426 
	C197.759430,441.711426 195.209686,441.711426 192.286957,441.711426 
	C192.286957,435.472351 192.286957,429.013885 192.286957,422.555389 
	C192.888824,422.456512 193.490692,422.357666 194.092545,422.258789 
	C194.373627,424.091644 194.654709,425.924469 194.935684,428.221924 
z"/>
<path fill="#ECECEC" opacity="1.000000" stroke="none" 
	d="
M203.969696,383.791077 
	C203.078491,384.693939 202.263168,385.439484 201.304092,385.845642 
	C199.177521,386.746155 196.776276,388.424042 194.865295,388.015533 
	C192.865402,387.588013 191.308380,385.088898 189.557785,383.495270 
	C189.845795,383.021545 190.133804,382.547791 190.421829,382.074066 
	C194.647018,382.074066 198.872223,382.074066 203.556000,382.154297 
	C204.003143,382.649628 203.991745,383.064728 203.969696,383.791077 
z"/>
<path fill="#434343" opacity="1.000000" stroke="none" 
	d="
M140.538788,361.679626 
	C139.844193,359.670715 139.142288,357.781921 139.341690,355.993652 
	C139.397461,355.493439 142.299683,354.720459 143.543274,355.133942 
	C144.498062,355.451355 145.739532,358.130432 145.391830,358.551056 
	C144.242371,359.941742 142.430267,360.784668 140.538788,361.679626 
z"/>
<path fill="#831315" opacity="1.000000" stroke="none" 
	d="
M226.877380,233.385132 
	C227.127136,234.167847 227.289948,235.346664 227.227783,236.764130 
	C226.932007,235.928925 226.861206,234.855087 226.877380,233.385132 
z"/>
<path fill="#F6F4F4" opacity="1.000000" stroke="none" 
	d="
M398.933228,244.377808 
	C398.981415,246.487442 399.073608,248.157303 398.980530,249.816742 
	C397.742371,271.890503 383.255127,275.301392 367.077179,273.807404 
	C365.948059,273.703156 364.142914,271.460876 364.127472,270.194855 
	C363.940582,254.875076 364.044830,239.551910 364.040466,224.229630 
	C364.039368,220.418472 366.560333,219.579346 369.621033,219.261017 
	C383.817932,217.784500 395.180878,226.050125 398.126862,240.011612 
	C398.401794,241.314545 398.637329,242.625793 398.933228,244.377808 
z"/>
<path fill="#F6F5F4" opacity="1.000000" stroke="none" 
	d="
M251.253021,324.555176 
	C250.065598,320.057220 248.401871,315.907166 248.238754,311.698975 
	C247.819427,300.881592 247.911041,290.034271 248.201584,279.209717 
	C248.248566,277.460083 250.192993,274.425629 251.546753,274.254791 
	C264.130249,272.666840 279.532898,275.705383 286.683441,289.571106 
	C293.847595,303.463196 289.644440,320.913940 277.488831,327.350952 
	C268.929199,331.883728 257.340729,330.782104 251.253021,324.555176 
z"/>
<path fill="#F6F4F4" opacity="1.000000" stroke="none" 
	d="
M264.365723,265.927856 
	C260.104736,266.117706 256.279907,266.253479 252.454559,266.373474 
	C249.642899,266.461700 248.047272,265.253784 248.050964,262.275116 
	C248.066467,249.784393 248.060303,237.293640 248.070435,224.802902 
	C248.073212,221.376007 249.870575,219.518295 253.223663,219.306747 
	C262.807251,218.702087 271.967773,220.175995 277.459167,228.915375 
	C283.205261,238.060135 282.628265,248.013718 277.839905,257.497589 
	C275.253601,262.620148 270.083679,264.523163 264.365723,265.927856 
z"/>
<path fill="#EFEFEF" opacity="1.000000" stroke="none" 
	d="
M59.189987,377.368713 
	C61.872726,376.816010 64.721886,376.084259 67.082108,376.853210 
	C68.529800,377.324860 70.212463,380.224030 70.006592,381.800171 
	C69.766266,383.640015 67.899948,385.815399 66.152824,386.754761 
	C64.441193,387.675049 61.992634,387.224792 59.150089,387.427124 
	C59.150089,383.964111 59.150089,380.893524 59.189987,377.368713 
z"/>
<path fill="#ECECEC" opacity="1.000000" stroke="none" 
	d="
M59.374203,370.211029 
	C59.204578,366.550659 59.204578,363.288971 59.204578,360.016541 
	C63.614162,359.193970 66.650841,359.936768 67.032730,364.663971 
	C67.375801,368.910645 65.102554,370.651581 59.374203,370.211029 
z"/>
<path fill="#ECECEC" opacity="1.000000" stroke="none" 
	d="
M194.250153,377.197662 
	C192.906769,377.097229 192.004242,376.997131 190.947784,376.879944 
	C194.335922,371.594604 197.883896,371.596954 201.177902,377.197968 
	C198.772537,377.197968 196.731766,377.197968 194.250153,377.197662 
z"/>
<path fill="#F1F1F1" opacity="1.000000" stroke="none" 
	d="
M379.341003,374.278778 
	C383.201172,372.279480 387.035004,372.130096 388.833618,375.785675 
	C390.116333,378.392670 390.398651,382.468262 389.213409,384.988281 
	C388.345612,386.833313 384.268677,388.271240 381.797760,388.037018 
	C376.171539,387.503754 374.843719,380.233185 379.341003,374.278778 
z"/>
<path fill="#F1F1F1" opacity="1.000000" stroke="none" 
	d="
M423.809723,382.576111 
	C421.417603,387.846802 418.197144,389.531586 414.103485,388.018066 
	C410.691742,386.756683 408.783905,382.134674 410.144897,377.927399 
	C411.397827,374.054260 414.317963,372.337982 418.223572,373.140533 
	C423.042816,374.130890 424.196503,377.782013 423.809723,382.576111 
z"/>
<path fill="#F0F0F0" opacity="1.000000" stroke="none" 
	d="
M156.818375,435.067871 
	C155.522354,430.606049 156.610901,426.920532 160.649628,425.813354 
	C162.945648,425.183990 167.107544,426.196228 168.266891,427.921875 
	C169.647110,429.976288 169.716293,434.085022 168.563782,436.420532 
	C166.242584,441.124268 160.833694,440.425171 156.818375,435.067871 
z"/>
<path fill="#D7D8D7" opacity="1.000000" stroke="none" 
	d="
M56.341827,431.182556 
	C55.731487,429.322510 55.503834,427.622772 55.276176,425.923035 
	C55.670311,425.579956 56.064449,425.236908 56.458584,424.893860 
	C57.731270,425.863037 59.003956,426.832214 60.276634,427.801392 
	C59.092583,428.981873 57.908546,430.162354 56.341827,431.182556 
z"/>
<path fill="#ECECEC" opacity="1.000000" stroke="none" 
	d="
M206.905823,438.921082 
	C206.474503,434.419678 206.474503,430.019928 206.474503,425.620361 
	C212.126816,425.728027 214.604584,427.592682 214.836212,431.859283 
	C215.069580,436.157715 212.681976,438.438477 206.905823,438.921082 
z"/>
<path fill="#E1E1E1" opacity="1.000000" stroke="none" 
	d="
M243.940125,430.425171 
	C242.591370,430.910126 241.506836,431.082306 240.192749,431.290955 
	C240.192749,429.180206 240.192749,427.422546 240.192749,425.436249 
	C243.376541,425.723328 245.982880,426.061371 243.940125,430.425171 
z"/>
<path fill="#E1E1E1" opacity="1.000000" stroke="none" 
	d="
M358.962616,428.308472 
	C359.643860,427.083099 360.324097,426.273071 361.004395,425.463013 
	C361.951355,426.453735 363.335602,427.319305 363.669159,428.485443 
	C363.848083,429.111084 362.220825,430.253357 361.408630,431.162537 
	C360.592987,430.349609 359.777313,429.536682 358.962616,428.308472 
z"/>
</svg>